<svg width="40" height="40" viewBox="0 0 40 40" fill="none" xmlns="http://www.w3.org/2000/svg">
<circle cx="20" cy="20" r="20" fill="#F5F0F4"/>
<g clip-path="url(#clip0_17_165)">
<path d="M33 20.1012C33 19.1975 32.9284 18.289 32.7756 17.4H20.52V22.519H27.5382C27.247 24.17 26.0502 25.832 24.68 26.76L24.941 29.88L28.84 29.88C31.2988 27.5648 33 24.1456 33 20.1012Z" fill="#4285F4"/>
<path d="M20.2033 33C23.7173 33 26.6808 31.8607 28.84 29.8942L24.68 26.76C23.5118 27.5447 21.9651 27.9087 20.2081 27.9087C16.8089 27.9087 13.7541 25.6443 12.72 22.6H8.56V25.9138C10.7718 30.2582 15.2769 33 20.2033 33Z" fill="#34A853"/>
<path d="M12.72 22.6C12.124 21.0179 12.384 18.9821 12.98 17.4L13.24 14.28L8.56 14.02C6.54187 17.6196 6.49548 22.1204 8.51361 25.72L12.72 22.6Z" fill="#FBBC04"/>
<path d="M20.4541 12.0894C22.3517 12.0611 24.1857 12.7509 25.5599 14.0171L29.36 10.346C26.9538 8.16315 23.7602 6.96307 20.4541 7.00087C15.4216 7.00087 10.8195 9.67325 8.56 14.02L12.9812 17.4C14.0327 14.3525 16.9817 12.0894 20.4541 12.0894Z" fill="#EA4335"/>
</g>
<defs>
<clipPath id="clip0_17_165">
<rect width="26" height="26" fill="white" transform="translate(7 7)"/>
</clipPath>
</defs>
</svg>
