<svg width="26" height="26" viewBox="0 0 26 26" fill="none" xmlns="http://www.w3.org/2000/svg">
<path d="M3.25 13L5.41667 10.8333M5.41667 10.8333L13 3.25L20.5833 10.8333M5.41667 10.8333V21.6667C5.41667 22.265 5.90169 22.75 6.5 22.75H9.75M20.5833 10.8333L22.75 13M20.5833 10.8333V21.6667C20.5833 22.265 20.0983 22.75 19.5 22.75H16.25M9.75 22.75C10.3483 22.75 10.8333 22.265 10.8333 21.6667V17.3333C10.8333 16.735 11.3184 16.25 11.9167 16.25H14.0833C14.6816 16.25 15.1667 16.735 15.1667 17.3333V21.6667C15.1667 22.265 15.6517 22.75 16.25 22.75M9.75 22.75H16.25" stroke="#606060" stroke-width="2" stroke-linecap="round" stroke-linejoin="round"/>
</svg>
