<svg width="40" height="40" viewBox="0 0 40 40" fill="none" xmlns="http://www.w3.org/2000/svg">
<circle cx="20" cy="20" r="20" fill="#FEE500"/>
<path d="M20.0578 9.65259C13.8354 9.65259 8.81734 13.667 8.81734 18.5406C8.81734 21.704 10.9049 24.4739 14.0361 26.0556L12.9763 30.0139C12.9563 30.0733 12.9533 30.1369 12.9674 30.1979C12.9816 30.2589 13.0125 30.3147 13.0566 30.3591C13.1209 30.4158 13.2037 30.4472 13.2894 30.4474C13.3606 30.4417 13.428 30.4136 13.4821 30.3672L18.0426 27.2921C18.7158 27.385 19.3943 27.4333 20.0739 27.4366C26.2883 27.4366 31.3144 23.4222 31.3144 18.5406C31.3144 13.659 26.2722 9.65259 20.0578 9.65259Z" fill="#392020"/>
</svg>
