<svg width="26" height="26" viewBox="0 0 26 26" fill="none" xmlns="http://www.w3.org/2000/svg">
<g clip-path="url(#clip0_563_2139)">
<path d="M20.4967 6.51083C20.28 5.87167 19.6733 5.41667 18.9583 5.41667H16.25V3.25H9.75V5.41667H7.04167C6.32667 5.41667 5.73083 5.87167 5.50333 6.51083L3.25 13V21.6667C3.25 22.2625 3.7375 22.75 4.33333 22.75H5.41667C6.0125 22.75 6.5 22.2625 6.5 21.6667V20.5833H19.5V21.6667C19.5 22.2625 19.9875 22.75 20.5833 22.75H21.6667C22.2625 22.75 22.75 22.2625 22.75 21.6667V13L20.4967 6.51083ZM7.42083 7.58333H18.5683L19.695 10.8333H6.29417L7.42083 7.58333ZM20.5833 18.4167H5.41667V13.3683L5.54667 13H20.4642L20.5833 13.3683V18.4167Z" fill="#606060"/>
<path d="M8.125 17.3335C9.02246 17.3335 9.75 16.606 9.75 15.7085C9.75 14.811 9.02246 14.0835 8.125 14.0835C7.22754 14.0835 6.5 14.811 6.5 15.7085C6.5 16.606 7.22754 17.3335 8.125 17.3335Z" fill="#606060"/>
<path d="M17.875 17.3335C18.7725 17.3335 19.5 16.606 19.5 15.7085C19.5 14.811 18.7725 14.0835 17.875 14.0835C16.9775 14.0835 16.25 14.811 16.25 15.7085C16.25 16.606 16.9775 17.3335 17.875 17.3335Z" fill="#606060"/>
</g>
<defs>
<clipPath id="clip0_563_2139">
<rect width="26" height="26" fill="white"/>
</clipPath>
</defs>
</svg>
