<svg width="375" height="292" viewBox="0 0 375 292" fill="none" xmlns="http://www.w3.org/2000/svg">
<path d="M218.5 83.0193L225.875 97.8317L247.375 97.3317L234.5 78.0193C230.1 79.2193 224.333 77.186 222 76.0193C221.6 79.6193 220 83.0193 218.5 83.0193Z" fill="#191939"/>
<path d="M202.5 89.5193L204.5 104.019L210.5 101.019L209 90.0193C206.5 88.5193 207 87.5193 206 86.0193L202.5 89.5193Z" fill="#191939"/>
<path d="M191 140.019C180.2 138.019 178.833 145.186 179.5 149.019H191V140.019Z" fill="#FFDB66"/>
<path d="M315.5 184.02H305C309 180.42 313.667 179.853 315.5 180.02C333.5 180.02 336.333 205.353 335.5 218.02H331C333.4 193.22 321 183.52 315.5 184.02Z" fill="#D0752C"/>
<path d="M256 80.0193V97.5193H322V80.0193C322 77.5193 319.519 75.5193 317.038 75.5193H260.962C257.489 75.5193 256 78.0193 256 80.0193Z" fill="#FFDB66"/>
<path d="M230.5 106.019H295L297.5 97.5193H230.5C200.1 97.5193 191.5 117.853 191 128.019V150.019H200.5V130.519C202.1 111.719 221.167 106.353 230.5 106.019Z" fill="#FFDB66"/>
<path d="M168 212.519H280L298.5 160.019L300.5 144.519L303 106.019H304V97.5193H295.5L292.5 149.019H191C149.8 146.619 144.167 183.353 146.5 202.019C148.9 198.819 152.167 191.019 153.5 187.519C153.1 179.919 158.333 177.353 161 177.019C165.5 168.019 172 163.019 174.5 160.519C176.5 158.519 179.667 158.353 181 158.519C182.2 159.719 180.5 161.686 179.5 162.519C174.7 166.519 174.167 170.519 174.5 172.019C179.3 168.819 179.833 172.686 179.5 175.019C183.9 174.219 183.667 177.686 183 179.519C187 184.319 181 186.853 177.5 187.519C175.1 191.919 171.833 194.019 170.5 194.519C172.1 194.919 173.833 197.353 174.5 198.519L168 212.519Z" fill="#FFDB66"/>
<path d="M380.5 113.519C373.7 99.1193 351 96.8527 340.5 97.5193H303.5V106.019H353L352 149.019H323.5C325.1 145.019 322.833 141.686 321.5 140.519C316 138.019 305 142.019 300 144.519C296 146.519 296.667 155.686 297.5 160.019C282.7 164.019 279.667 196.686 280 212.519H285C288.2 212.519 289 214.519 289 215.519L289.5 218.519H295.5C294.333 205.853 296.6 180.419 315 180.019C333.4 179.619 336.333 205.519 335.5 218.519H367C366.6 188.919 375.833 181.186 380.5 181.019V149.019H359L360.5 107.019C372.9 107.419 379 122.519 380.5 130.019V113.519Z" fill="#FFDB66"/>
<path d="M130 243.02C137.479 249.02 146.073 243.02 149.189 239.52C152.141 236.02 156.668 229.82 160.998 223.02H165.426C167.353 234.02 172.5 238.02 176.5 239.52C180.5 241.02 183.5 240.52 195.5 240.02C205.1 239.62 210.5 228.853 212 223.52H285.5C286.3 233.92 293.5 239.186 297 240.52H314.5C325.3 242.12 330 226.52 331 218.52H360C362.8 232.52 369.5 238.02 372.5 239.02H380V280.52H139C137.5 270.02 133.116 254.186 130 243.02Z" fill="#CDCDCD"/>
<path d="M358 57.9738C358.485 56.1557 360.473 52.5193 364.545 52.5193C368.618 52.5193 378.727 52.5193 383.455 52.5193" stroke="#E7E7E7" stroke-width="1.4" stroke-linecap="round" stroke-linejoin="round"/>
<path d="M345 97.5193V69.5193H383" stroke="#E7E7E7" stroke-width="1.4" stroke-linecap="round" stroke-linejoin="round"/>
<path d="M352 68.5193V58.5193H390" stroke="#E7E7E7" stroke-width="1.4" stroke-linecap="round" stroke-linejoin="round"/>
<path d="M374 239.52C365.6 239.52 361.333 225.353 360 218.52H367C367 190.12 374 182.52 380.5 181.02V239.52H374Z" fill="#545351"/>
<path d="M195.5 240.52C203.1 240.52 209.333 229.52 211.5 224.02H166C167.6 236.02 175 240.52 180.5 240.52H195.5Z" fill="#545351"/>
<path d="M316 183.52H305C295.4 192.72 294.667 210.686 295.5 218.52H288.5V221.52C288.5 223.52 286 224.02 285 224.02C285 232.02 292.475 241.52 297.5 241.52H315.5C319 241.52 323 237.853 324 236.52C334.922 221.13 331.549 208.205 328.564 196.765L328.5 196.52C326.1 187.32 319.167 184.02 316 183.52Z" fill="#545351"/>
<path d="M256 97.5193V80.0193C256 78.0193 257.5 75.5193 261 75.5193C265 75.5193 300.833 75.5193 317.5 75.5193C320 75.5193 322.5 77.5193 322.5 80.0193C322.5 83.2193 322.5 93.0193 322.5 97.5193" stroke="black" stroke-width="1.4" stroke-linecap="round" stroke-linejoin="round"/>
<path d="M275.5 75.5193C274.333 75.8526 272 76.5193 272 80.0193C272 82.8193 272 92.186 272 97.0193" stroke="black" stroke-width="1.4" stroke-linecap="round" stroke-linejoin="round"/>
<path d="M200.5 129.519V149.019H292.5L295 106.019H233C207.4 106.019 200.5 122.019 200.5 129.519Z" stroke="black" stroke-width="1.4" stroke-linecap="round" stroke-linejoin="round"/>
<path d="M298 152.519C296 150.019 297.666 146.519 299 145.519C301 144.019 304.5 141.742 310 140.519C315 139.408 323 138.519 324 144.519C325 150.519 321.5 154.519 315 154.519C309.8 154.519 307.5 154.519 307 154.519L303.5 157.519" stroke="black" stroke-width="1.4" stroke-linecap="round" stroke-linejoin="round"/>
<path d="M303 146.519C304.167 147.019 306.6 148.719 307 151.519" stroke="black" stroke-width="1.4" stroke-linecap="round" stroke-linejoin="round"/>
<path d="M300.5 144.019L303 106.019H353L352 149.019H324" stroke="black" stroke-width="1.4" stroke-linecap="round" stroke-linejoin="round"/>
<path d="M359 149.019L360 106.519C380.4 109.719 382.167 136.186 380.5 149.019H359Z" stroke="black" stroke-width="1.4" stroke-linecap="round" stroke-linejoin="round"/>
<path d="M297.5 160.02C291.667 160.686 280 172.12 280 212.52" stroke="black" stroke-width="1.4" stroke-linecap="round" stroke-linejoin="round"/>
<path d="M357 157.02V178.02" stroke="black" stroke-width="1.4" stroke-linecap="round" stroke-linejoin="round"/>
<rect x="181.7" y="195.22" width="51.6" height="10.6" rx="2.3" fill="white" stroke="#1E1E1E" stroke-width="1.4"/>
<path d="M182 200.52L233 200.52" stroke="#1E1E1E" stroke-width="1.4" stroke-linecap="round" stroke-linejoin="round"/>
<path d="M190.5 140.019C186.5 138.853 178.7 139.019 179.5 149.019" stroke="black" stroke-width="1.4" stroke-linecap="round" stroke-linejoin="round"/>
<rect x="337.7" y="160.22" width="13.6" height="4.6" rx="2.3" fill="white" stroke="black" stroke-width="1.4"/>
<path d="M264.3 188.02C264.3 190.78 263.447 193.252 262.1 195.02C260.754 196.787 258.944 197.82 257 197.82C255.056 197.82 253.246 196.787 251.9 195.02C250.553 193.252 249.7 190.78 249.7 188.02C249.7 185.259 250.553 182.787 251.9 181.019C253.246 179.252 255.056 178.22 257 178.22C258.944 178.22 260.754 179.252 262.1 181.019C263.447 182.787 264.3 185.259 264.3 188.02Z" fill="white" stroke="black" stroke-width="1.4"/>
<path d="M153 188.02C153 182.221 156.582 177.52 161 177.52" stroke="black" stroke-width="1.4" stroke-linecap="round" stroke-linejoin="round"/>
<path d="M167.5 212.52H286C287.657 212.52 289 213.863 289 215.52V220.52C289 222.176 287.657 223.52 286 223.52H161" stroke="black" stroke-width="1.4"/>
<path d="M280 216.52L280 223.52" stroke="black" stroke-width="1.4" stroke-linecap="round"/>
<path d="M289 218.519H295.5C294.333 207.186 296.5 180.02 315.5 180.02C324.5 180.02 336.5 189.02 335.5 218.519H367C366.333 207.186 368 183.819 380 181.019" stroke="black" stroke-width="1.4" stroke-linecap="round" stroke-linejoin="round"/>
<path d="M331.3 212.52C331.3 220.429 329.474 227.555 326.559 232.679C323.632 237.824 319.695 240.82 315.5 240.82C311.305 240.82 307.368 237.824 304.441 232.679C301.526 227.555 299.7 220.429 299.7 212.52C299.7 204.61 301.526 197.484 304.441 192.36C307.368 187.215 311.305 184.22 315.5 184.22C319.695 184.22 323.632 187.215 326.559 192.36C329.474 197.484 331.3 204.61 331.3 212.52Z" stroke="black" stroke-width="1.4"/>
<path d="M320.3 212.52C320.3 214.897 319.71 217.017 318.792 218.518C317.867 220.032 316.683 220.82 315.5 220.82C314.317 220.82 313.133 220.032 312.208 218.518C311.29 217.017 310.7 214.897 310.7 212.52C310.7 210.142 311.29 208.022 312.208 206.521C313.133 205.007 314.317 204.22 315.5 204.22C316.683 204.22 317.867 205.007 318.792 206.521C319.71 208.022 320.3 210.142 320.3 212.52Z" fill="white" stroke="black" stroke-width="1.4"/>
<path d="M336 211.52H352.5" stroke="black" stroke-width="1.4" stroke-linecap="round" stroke-linejoin="round"/>
<path d="M366 181.52C361 183.52 352.2 192.52 353 218.52" stroke="black" stroke-width="1.4" stroke-linecap="round" stroke-linejoin="round"/>
<path d="M370 179.52C371.5 178.686 375.8 176.92 381 176.52" stroke="black" stroke-width="1.4" stroke-linecap="round" stroke-linejoin="round"/>
<path d="M148.5 176H135V184H146.5" stroke="#E7E7E7" stroke-width="1.4" stroke-linecap="round" stroke-linejoin="round"/>
<path d="M15 80.5193V71.5193H75V80.5193" stroke="#E7E7E7" stroke-width="1.4" stroke-linecap="round" stroke-linejoin="round"/>
<path d="M165.5 153.519V131.019H119" stroke="#E7E7E7" stroke-width="1.4" stroke-linecap="round" stroke-linejoin="round"/>
<path d="M83 133.563V80.5193H7V221.519" stroke="#E7E7E7" stroke-width="1.4" stroke-linecap="round" stroke-linejoin="round"/>
<path d="M96 130.019V120.519H158V130.019" stroke="#E7E7E7" stroke-width="1.4" stroke-linecap="round" stroke-linejoin="round"/>
<path d="M15 92.5193V100.519H75V92.5193H15Z" stroke="#E7E7E7" stroke-width="1.4" stroke-linecap="round" stroke-linejoin="round"/>
<path d="M353 77.5193V85.5193H383V77.5193H353Z" stroke="#E7E7E7" stroke-width="1.4" stroke-linecap="round" stroke-linejoin="round"/>
<path d="M353 90.5193V98.5193H385V90.5193H353Z" stroke="#E7E7E7" stroke-width="1.4" stroke-linecap="round" stroke-linejoin="round"/>
<path d="M15 118.519V126.519H75V118.519H15Z" stroke="#E7E7E7" stroke-width="1.4" stroke-linecap="round" stroke-linejoin="round"/>
<path d="M15 157.519V165.519H45V157.519H15Z" stroke="#E7E7E7" stroke-width="1.4" stroke-linecap="round" stroke-linejoin="round"/>
<path d="M15 105.519V113.519H75V105.519H15Z" stroke="#E7E7E7" stroke-width="1.4" stroke-linecap="round" stroke-linejoin="round"/>
<path d="M45 131.519H15V139.519H42.5" stroke="#E7E7E7" stroke-width="1.4" stroke-linecap="round" stroke-linejoin="round"/>
<path d="M45 170.519H15V178.519H59" stroke="#E7E7E7" stroke-width="1.4" stroke-linecap="round" stroke-linejoin="round"/>
<path d="M45 144.519H15V152.519H42.5" stroke="#E7E7E7" stroke-width="1.4" stroke-linecap="round" stroke-linejoin="round"/>
<path d="M59.5 183.519H15V191.519H63.5833" stroke="#E7E7E7" stroke-width="1.4" stroke-linecap="round" stroke-linejoin="round"/>
<path d="M33 200.519V222.519H53V200.519H33Z" stroke="#E7E7E7" stroke-width="1.4" stroke-linecap="round" stroke-linejoin="round"/>
<path d="M105 120.019C105.667 117.519 108.4 112.519 114 112.519C119.6 112.519 133.5 112.519 140 112.519" stroke="#E7E7E7" stroke-width="1.4" stroke-linecap="round" stroke-linejoin="round"/>
<path d="M149 120.019C148.333 117.519 145.6 112.519 140 112.519" stroke="#E7E7E7" stroke-width="1.4" stroke-linecap="round" stroke-linejoin="round"/>
<path d="M111.348 151.519H118V143.519H109" stroke="#E7E7E7" stroke-width="1.4" stroke-linecap="round" stroke-linejoin="round"/>
<path d="M135 143.519V151.519H158V143.519H135Z" stroke="#E7E7E7" stroke-width="1.4" stroke-linecap="round" stroke-linejoin="round"/>
<path d="M155 159.519H135V167.519H149" stroke="#E7E7E7" stroke-width="1.4" stroke-linecap="round" stroke-linejoin="round"/>
<path d="M113 167.519H118V159.519L113 159.519" stroke="#E7E7E7" stroke-width="1.4" stroke-linecap="round" stroke-linejoin="round"/>
<path d="M107.5 183.519H118V175.519H110.5" stroke="#E7E7E7" stroke-width="1.4" stroke-linecap="round" stroke-linejoin="round"/>
<path d="M258.7 106.219H264.3V115.519C264.3 116.237 263.718 116.819 263 116.819H260C259.282 116.819 258.7 116.237 258.7 115.519V106.219Z" stroke="black" stroke-width="1.4"/>
<path d="M258 110.519H247C245.895 110.519 245 111.415 245 112.519V118.519C245 119.624 245.895 120.519 247 120.519H277C278.105 120.519 279 119.624 279 118.519V112.519C279 111.415 278.105 110.519 277 110.519H264.5" stroke="black" stroke-width="1.4" stroke-linejoin="round"/>
<path d="M217.7 135.519C217.7 131.488 220.968 128.219 225 128.219H246C250.032 128.219 253.3 131.488 253.3 135.519C253.3 139.551 250.032 142.819 246 142.819H225C220.968 142.819 217.7 139.551 217.7 135.519Z" stroke="black" stroke-width="1.4" stroke-linecap="round"/>
<path d="M294 127.519H282C277.582 127.519 274 131.101 274 135.519V135.519C274 139.938 277.582 143.519 282 143.519H292.5" stroke="black" stroke-width="1.4"/>
<path d="M244 131.519C246 131.519 248.5 133.519 248.5 137.519C248.5 140.519 246.5 142.519 245.5 142.519" stroke="black" stroke-width="1.4" stroke-linecap="round" stroke-linejoin="round"/>
<path d="M328 131.519C330 131.519 332.5 133.519 332.5 137.519C332.5 140.519 330.5 142.519 329.5 142.519" stroke="black" stroke-width="1.4" stroke-linecap="round" stroke-linejoin="round"/>
<path d="M368 131.519C370 131.519 372.5 133.519 372.5 137.519C372.5 140.519 370.5 142.519 369.5 142.519" stroke="black" stroke-width="1.4" stroke-linecap="round" stroke-linejoin="round"/>
<path d="M212 148.519C212.833 146.519 216.3 143.019 223.5 143.019" stroke="black" stroke-width="1.4" stroke-linecap="round" stroke-linejoin="round"/>
<path d="M267 148.519C267.833 146.519 271.3 143.019 278.5 143.019" stroke="black" stroke-width="1.4" stroke-linecap="round" stroke-linejoin="round"/>
<path d="M259.5 148.519C258.667 146.519 255.2 143.019 248 143.019H223" stroke="black" stroke-width="1.4" stroke-linecap="round" stroke-linejoin="round"/>
<path d="M276.559 82.9724V80.7927H286.982V82.9724H283.08V93.5193H280.461V82.9724H276.559ZM289.18 93.5193H286.332L290.744 80.7927H294.137L298.531 93.5193H295.701L294.743 90.5837H290.138L289.18 93.5193ZM290.806 88.5271H294.075L292.484 83.658H292.396L290.806 88.5271ZM302.416 80.7927L305.018 85.1697H305.105L307.725 80.7927H310.713L306.828 87.156L310.801 93.5193H307.742L305.105 89.1423H305.018L302.381 93.5193H299.34L303.33 87.156L299.41 80.7927H302.416ZM314.949 80.7927V93.5193H312.312V80.7927H314.949Z" fill="black"/>
<path d="M302 127.519C305.333 127.686 311.1 130.419 309.5 140.019" stroke="black" stroke-width="1.4" stroke-linecap="round" stroke-linejoin="round"/>
<path d="M97.4674 158.001C97.36 158.006 97.2548 158.032 97.1576 158.078C97.0604 158.124 96.9732 158.189 96.9009 158.269C96.8287 158.348 96.7728 158.442 96.7365 158.543C96.7002 158.644 96.6842 158.752 96.6894 158.86C96.8304 161.767 97.4117 164.314 98.5991 166.382C99.7865 168.45 101.6 170.013 104.038 170.881C104.139 170.917 104.247 170.933 104.354 170.928C104.461 170.922 104.567 170.895 104.664 170.849C104.761 170.803 104.848 170.738 104.92 170.658C104.992 170.578 105.047 170.484 105.083 170.382C105.155 170.178 105.144 169.952 105.05 169.756C104.957 169.559 104.79 169.408 104.586 169.335C102.481 168.586 101.029 167.325 100.018 165.564C99.0069 163.803 98.457 161.515 98.3244 158.781C98.3193 158.674 98.293 158.568 98.2471 158.471C98.2012 158.373 98.1366 158.286 98.057 158.213C97.9775 158.141 97.8844 158.085 97.7833 158.048C97.6821 158.012 97.5748 157.996 97.4674 158.001Z" fill="black"/>
<path d="M86.6103 152.138C82.7866 152.665 80.2557 156.571 80.8298 160.74C81.4038 164.91 84.896 167.986 88.7196 167.459C92.5432 166.933 95.0743 163.028 94.5003 158.858C93.9262 154.688 90.4339 151.612 86.6103 152.138ZM86.833 153.756C89.6678 153.365 92.4181 155.682 92.886 159.08C93.3539 162.479 91.3318 165.452 88.4969 165.842C85.6621 166.232 82.9119 163.917 82.444 160.518C81.9761 157.12 83.9981 154.146 86.833 153.756Z" fill="black"/>
<path d="M102.682 148.805C101.323 148.992 100.383 150.169 99.8623 151.642C99.3419 153.115 99.1836 154.982 99.4582 156.977C99.7328 158.972 100.39 160.728 101.289 162.006C102.188 163.283 103.412 164.162 104.771 163.975C106.129 163.788 107.069 162.611 107.59 161.138C108.11 159.666 108.268 157.797 107.994 155.802C107.719 153.807 107.062 152.052 106.163 150.774C105.264 149.497 104.041 148.618 102.682 148.805ZM102.884 150.272C103.478 150.19 104.234 150.601 104.956 151.627C105.678 152.653 106.284 154.214 106.531 156.003C106.777 157.793 106.615 159.459 106.197 160.642C105.779 161.825 105.163 162.426 104.569 162.507C103.974 162.589 103.218 162.178 102.496 161.152C101.773 160.126 101.168 158.565 100.921 156.776C100.675 154.986 100.836 153.32 101.254 152.137C101.672 150.954 102.29 150.353 102.884 150.272Z" fill="black"/>
<path d="M96.0806 153.708C94.8019 154.036 93.627 154.888 92.5255 156.121C92.3871 156.276 92.3128 156.485 92.319 156.703C92.3253 156.92 92.4115 157.127 92.5588 157.279C92.7061 157.431 92.9024 157.515 93.1046 157.513C93.3068 157.511 93.4983 157.423 93.637 157.267C94.6088 156.18 95.5587 155.534 96.4624 155.302C97.3661 155.071 98.2498 155.208 99.2637 155.837C99.3512 155.891 99.4475 155.926 99.5471 155.941C99.6467 155.956 99.7476 155.949 99.844 155.922C99.9404 155.894 100.03 155.847 100.109 155.781C100.188 155.716 100.253 155.635 100.302 155.542C100.4 155.354 100.425 155.131 100.369 154.921C100.314 154.711 100.184 154.531 100.007 154.422C98.7161 153.621 97.3594 153.38 96.0806 153.708Z" fill="black"/>
<path d="M83.5901 146.606C80.7434 147.421 78.7613 149.328 77.2641 151.567C77.2043 151.657 77.1627 151.757 77.1416 151.863C77.1206 151.969 77.1205 152.078 77.1414 152.183C77.1623 152.289 77.2037 152.389 77.2634 152.479C77.323 152.569 77.3997 152.646 77.489 152.706C77.5783 152.766 77.6786 152.808 77.784 152.829C77.8894 152.85 77.9979 152.85 78.1033 152.829C78.2087 152.808 78.309 152.767 78.3984 152.707C78.4878 152.647 78.5646 152.571 78.6244 152.481C80.4612 149.734 82.6581 147.827 86.7414 147.824C86.8489 147.824 86.9553 147.803 87.0546 147.761C87.1538 147.72 87.244 147.66 87.3199 147.583C87.3958 147.507 87.4559 147.416 87.4969 147.317C87.5378 147.217 87.5588 147.111 87.5586 147.003C87.5584 146.895 87.5371 146.788 87.4958 146.689C87.4545 146.589 87.394 146.499 87.3179 146.423C87.2417 146.347 87.1514 146.286 87.052 146.245C86.9526 146.204 86.846 146.183 86.7385 146.183C85.5833 146.184 84.539 146.335 83.5901 146.606Z" fill="black"/>
<path d="M100.305 144.935C99.6767 145.038 99.0447 145.219 98.4174 145.473C98.2163 145.555 98.0558 145.713 97.9711 145.914C97.8865 146.114 97.8846 146.34 97.966 146.541C98.0475 146.743 98.2055 146.904 98.4053 146.989C98.6052 147.074 98.8304 147.076 99.0316 146.995C101.16 146.132 102.955 146.245 104.759 147.558C104.846 147.622 104.945 147.667 105.049 147.692C105.154 147.717 105.262 147.721 105.369 147.704C105.475 147.687 105.577 147.65 105.668 147.593C105.76 147.537 105.839 147.463 105.902 147.376C105.965 147.289 106.011 147.19 106.036 147.085C106.061 146.98 106.065 146.871 106.048 146.765C106.031 146.659 105.993 146.557 105.937 146.465C105.88 146.373 105.807 146.293 105.72 146.23C104.054 145.018 102.191 144.626 100.305 144.935Z" fill="black"/>
<path fill-rule="evenodd" clip-rule="evenodd" d="M74.1713 138.825C74.1713 138.825 79.0348 142.592 91.5138 143.411C97.7157 143.819 110.022 142.875 115.99 129.989C117.14 127.508 119.566 118.666 108.021 111.644C104.333 109.405 79.1729 98.945 67.6072 120.52C67.6072 120.52 60.3368 117.25 49.9979 122.102C46.0911 123.94 37.3645 132.389 37.9166 146.777C38.0452 150.145 37.4038 169.103 54.431 178.367C56.5335 180.074 61.9587 182.547 67.574 182.392C68.6005 182.363 69.5557 181.671 68.3568 180.083C67.1591 178.5 65.1066 174.272 65.0796 174.252C65.0514 174.226 56.7543 173.961 53.413 170.973C51.2638 169.053 48.888 164.13 53.1194 161.545C57.5051 158.872 61.5687 162.009 62.5543 164.045C63.919 166.862 66.0266 171.54 67.6478 172.033C70.1294 172.792 72.9109 170.667 72.4443 167.629C72.1169 165.497 69.242 161.183 67.694 158.629C66.1457 156.071 63.0281 149.929 74.1713 138.825Z" fill="black"/>
<path d="M65.0584 158.008C64.9509 158.004 64.8439 158.022 64.7434 158.061C64.6429 158.099 64.5509 158.157 64.4728 158.231C64.3946 158.305 64.3317 158.393 64.2877 158.492C64.2438 158.59 64.2196 158.696 64.2165 158.804C64.2134 158.912 64.2315 159.019 64.2697 159.12C64.308 159.22 64.3657 159.313 64.4395 159.391C64.5133 159.469 64.6018 159.533 64.6999 159.577C64.7981 159.621 64.9039 159.645 65.0114 159.648L81.5446 160.136C81.7615 160.142 81.9719 160.062 82.1296 159.913C82.2873 159.763 82.3793 159.557 82.3855 159.34C82.3916 159.122 82.3113 158.911 82.1623 158.753C82.0132 158.595 81.8077 158.503 81.5908 158.496L65.0584 158.008Z" fill="black"/>
<path d="M166 224.02C166.667 229.52 170.7 240.52 181.5 240.52C192.3 240.52 192.667 240.52 191.5 240.52C193.5 240.52 199.5 240.52 203.5 236.52C207.5 232.52 209 229.52 211.5 224.02" stroke="black" stroke-width="1.4" stroke-linecap="round" stroke-linejoin="round"/>
<path d="M181.5 224.02C182.333 229.353 186.3 240.02 195.5 240.02" stroke="black" stroke-width="1.4" stroke-linecap="round" stroke-linejoin="round"/>
<path d="M351.5 128.519H348C344.5 128.519 340 131.019 340 136.019C340 140.519 342.5 143.519 343.5 144.019H333.5C334.833 142.853 337 139.641 337 136.019C337 132.019 334 128.519 329 128.519L306.5 128.519" stroke="black" stroke-width="1.4" stroke-linecap="round" stroke-linejoin="round"/>
<path d="M359.5 128.519H368C372.5 128.519 376.5 131.519 376.5 136.519C376.5 142.019 373.833 143.686 372.5 144.019C374.833 144.019 379.7 144.419 380.5 146.019" stroke="black" stroke-width="1.4" stroke-linecap="round" stroke-linejoin="round"/>
<path d="M92 159C92 161.209 91.3284 163 90.5 163C89.6716 163 89 161.209 89 159C89 156.791 89.6716 155 90.5 155C91.3284 155 92 156.791 92 159Z" fill="black"/>
<path d="M204.549 65.0632C205.089 65.9158 205.174 66.8297 204.74 67.1044C204.305 67.3791 203.516 66.9106 202.977 66.058C202.437 65.2054 202.352 64.2915 202.786 64.0168C203.22 63.742 204.01 64.2105 204.549 65.0632Z" fill="black"/>
<path d="M198.604 68.8885C199.272 69.6447 199.501 70.5335 199.116 70.8736C198.731 71.2138 197.877 70.8765 197.209 70.1202C196.541 69.364 196.312 68.4752 196.697 68.1351C197.082 67.795 197.936 68.1323 198.604 68.8885Z" fill="black"/>
<ellipse cx="102" cy="155.5" rx="1" ry="3.5" fill="black"/>
<path d="M284.5 224.02C285.5 229.853 289.7 241.52 298.5 241.52L315.5 241.02" stroke="black" stroke-width="1.4" stroke-linecap="round" stroke-linejoin="round"/>
<path d="M360 218.52C361 225.186 365.2 239.02 374 239.02H389" stroke="black" stroke-width="1.4" stroke-linecap="round" stroke-linejoin="round"/>
<path d="M305 184.02H316" stroke="black" stroke-width="1.4" stroke-linecap="round" stroke-linejoin="round"/>
<path d="M335 218.52H331.5" stroke="black" stroke-width="1.4" stroke-linecap="round" stroke-linejoin="round"/>
<path d="M287.5 224.02C288.5 229.02 292.5 239.52 300.5 241.02" stroke="black" stroke-width="1.4" stroke-linecap="round" stroke-linejoin="round"/>
<path d="M168.5 224.02C169.5 229.52 173.5 239.02 181.5 240.52" stroke="black" stroke-width="1.4" stroke-linecap="round" stroke-linejoin="round"/>
<path d="M363 219.02C364 224.02 368 237.52 376.5 238.52" stroke="black" stroke-width="1.4" stroke-linecap="round" stroke-linejoin="round"/>
<path d="M294 237.02L300 239.02L306 235.52" stroke="black" stroke-width="1.4" stroke-linecap="round" stroke-linejoin="round"/>
<path d="M175 237.02L181 239.02L186.5 236.02" stroke="black" stroke-width="1.4" stroke-linecap="round" stroke-linejoin="round"/>
<path d="M369.5 234.02L373 234.819L378 232.02" stroke="black" stroke-width="1.4" stroke-linecap="round" stroke-linejoin="round"/>
<path d="M307 241.02L309.5 239.52" stroke="black" stroke-width="1.4" stroke-linecap="round" stroke-linejoin="round"/>
<path d="M189 240.52L190.5 239.52" stroke="black" stroke-width="1.4" stroke-linecap="round" stroke-linejoin="round"/>
<path d="M291 232.02L297 234.02L303 230.52" stroke="black" stroke-width="1.4" stroke-linecap="round" stroke-linejoin="round"/>
<path d="M172 232.02L178 234.02L183.5 231.02" stroke="black" stroke-width="1.4" stroke-linecap="round" stroke-linejoin="round"/>
<path d="M366.5 228.52L370 229.819L374.5 227.02" stroke="black" stroke-width="1.4" stroke-linecap="round" stroke-linejoin="round"/>
<path d="M288 224.52L294 226.52L300.5 222.52" stroke="black" stroke-width="1.4" stroke-linecap="round" stroke-linejoin="round"/>
<path d="M169 224.52L175 226.52L180.5 223.52" stroke="black" stroke-width="1.4" stroke-linecap="round" stroke-linejoin="round"/>
<path d="M363.5 221.02L367 222.319L372.5 218.52" stroke="black" stroke-width="1.4" stroke-linecap="round" stroke-linejoin="round"/>
<path d="M296 216.52L299.5 214.52" stroke="black" stroke-width="1.4" stroke-linecap="round" stroke-linejoin="round"/>
<path d="M367 213.02L372 210.52" stroke="black" stroke-width="1.4" stroke-linecap="round" stroke-linejoin="round"/>
<path d="M295.875 207.258L299.625 205.781" stroke="black" stroke-width="1.4" stroke-linecap="round" stroke-linejoin="round"/>
<path d="M368 203.019L372.5 201.52" stroke="black" stroke-width="1.4" stroke-linecap="round" stroke-linejoin="round"/>
<path d="M297 199.429L300.936 198.559" stroke="black" stroke-width="1.4" stroke-linecap="round" stroke-linejoin="round"/>
<path d="M369.5 195.019L374 194.02" stroke="black" stroke-width="1.4" stroke-linecap="round" stroke-linejoin="round"/>
<path d="M299 193.429L304 193.02" stroke="black" stroke-width="1.4" stroke-linecap="round" stroke-linejoin="round"/>
<path d="M372 189.229L377 188.52" stroke="black" stroke-width="1.4" stroke-linecap="round" stroke-linejoin="round"/>
<path d="M301.5 188.02L308 187.52" stroke="black" stroke-width="1.4" stroke-linecap="round" stroke-linejoin="round"/>
<path d="M375.5 183.52L381 183.319" stroke="black" stroke-width="1.4" stroke-linecap="round" stroke-linejoin="round"/>
<rect x="149" y="249.52" width="20" height="4" fill="white"/>
<rect x="239" y="249.52" width="20" height="4" fill="white"/>
<rect x="359" y="249.52" width="20" height="4" fill="white"/>
<path d="M131.5 249.52H139V253.52H132.5L131.5 249.52Z" fill="white"/>
<rect x="209" y="249.52" width="20" height="4" fill="white"/>
<rect x="329" y="249.52" width="20" height="4" fill="white"/>
<rect x="179" y="249.52" width="20" height="4" fill="white"/>
<rect x="-4" y="221.519" width="57" height="59" fill="#CDCDCD"/>
<rect x="26" y="249.52" width="20" height="4" fill="white"/>
<rect x="-4" y="249.52" width="20" height="4" fill="white"/>
<rect x="299" y="249.52" width="20" height="4" fill="white"/>
<rect x="269" y="249.52" width="20" height="4" fill="white"/>
<path d="M46 291.52C46 291.52 31.3308 236.419 52 220.52C65 210.52 86.5 227.02 90.5 240.02C91.6667 240.186 95.4 238.12 101 230.52C103.5 231.353 109 231.72 111 226.52L112.5 228.02C111.833 222.52 108.1 211.32 98.5 210.52C97.8333 210.02 96.4 208.82 96 208.02C95.5 207.02 112 202.52 131 216.52C132.833 217.853 138.8 216.52 148 200.52L154 187.02C159.833 188.52 171.7 192.52 174.5 198.52C167.833 212.52 152.5 241.82 142.5 245.02C136.3 247.003 131.016 244.95 129.773 242.834C132.604 251.573 139.032 279.377 140 290.02L46 291.52Z" fill="#F1F1F1"/>
<path d="M100 207.02C109.5 205.02 122.023 210.24 130.5 216.52C137 221.334 148.243 200.952 154 187.02C161 188.52 170 192.52 174.749 198.364C167.414 214.58 158.627 228.699 150.5 239.019C145.775 245.02 136.5 249.12 130.5 243.52" stroke="black" stroke-width="1.4" stroke-linecap="round" stroke-linejoin="round"/>
<path d="M157.559 187.648C159.059 175.648 173.2 158.12 180 158.519C182.5 158.666 181.5 160.52 180 162.02C178.232 163.787 175 166.519 174 171.019" stroke="black" stroke-width="1.4" stroke-linecap="round" stroke-linejoin="round"/>
<path d="M166 174.019C170.5 171.019 175.491 171.038 174 174.019C172.5 177.019 168.5 176.519 170.5 184.519" stroke="black" stroke-width="1.4" stroke-linecap="round" stroke-linejoin="round"/>
<path d="M174.441 172.39C175.441 170.39 180.241 169.69 179.441 174.89C182.441 174.39 184.141 176.19 182.941 179.39C183.941 180.557 185.041 182.39 183.441 184.39C181.841 186.39 179.775 187.223 178.941 187.39C176.941 187.89 175.941 185.39 176.941 184.39L179.941 181.39" stroke="black" stroke-width="1.4" stroke-linecap="round" stroke-linejoin="round"/>
<path d="M176.942 184.39C175.775 184.557 173.542 184.19 173.942 181.39M173.942 181.39L176.942 177.89M173.942 181.39C172.775 181.723 169.441 180.39 170.941 177.39" stroke="black" stroke-width="1.4" stroke-linecap="round" stroke-linejoin="round"/>
<path d="M177.5 187.52C176.5 189.853 174.5 193.02 170 194.02" stroke="black" stroke-width="1.4" stroke-linecap="round" stroke-linejoin="round"/>
<path d="M96.0181 197.52C94.8514 201.02 93.7181 208.52 98.5181 210.52" stroke="black" stroke-width="1.4" stroke-linecap="round" stroke-linejoin="round"/>
<path d="M70.5 192.02C71.1667 197.353 72 204.02 67.5 210.52" stroke="black" stroke-width="1.4" stroke-linecap="round" stroke-linejoin="round"/>
<path d="M45.7224 290.998C39.7224 266.998 38.7223 240.16 46.9457 226.16C50.5527 220.02 56.5 216.719 65.2223 218.16C79.5 220.52 89.2224 231.16 90.2224 240.16C93.7224 240.16 101.5 233.02 103 224.02" stroke="black" stroke-width="1.4" stroke-linecap="round" stroke-linejoin="round"/>
<path d="M106 222.02C107.5 223.02 112.2 227.02 113 229.02C114 231.52 111.5 217.02 104 212.52" stroke="black" stroke-width="1.4" stroke-linecap="round" stroke-linejoin="round"/>
<path d="M101.5 230.02C104 231.02 109.3 231.72 110.5 226.52" stroke="black" stroke-width="1.4" stroke-linecap="round" stroke-linejoin="round"/>
<path d="M56 215.398C60 206.898 74.4002 211.52 85.5 219.498C95.9654 227.02 103 223.02 104 220.52C105.2 217.52 103.2 214.32 102 213.52" stroke="black" stroke-width="1.4" stroke-linecap="round" stroke-linejoin="round"/>
<path d="M69 247.52C71.3333 260.353 76.1 286.92 76.5 290.52" stroke="black" stroke-width="1.4" stroke-linecap="round" stroke-linejoin="round"/>
<path d="M111.326 163.468C113.44 178.823 103.226 207.282 72.1053 186.533" stroke="black" stroke-width="1.4" stroke-linecap="round" stroke-linejoin="round"/>
<path d="M122 224.52C129 235.02 138 271.02 140 289.52" stroke="black" stroke-width="1.4" stroke-linecap="round" stroke-linejoin="round"/>
<path d="M146 202.519C144 172.519 156.6 147.019 191 149.019V128.519C191 117.019 200.5 97.5193 232.5 97.5193C264.5 97.5193 320.833 97.5193 345 97.5193C357.5 97.5193 372.4 100.419 380 112.019" stroke="black" stroke-width="1.4" stroke-linecap="round" stroke-linejoin="round"/>
<path d="M173.997 50.6016L177.057 51.4222" stroke="black" stroke-width="1.4" stroke-linecap="round"/>
<path d="M170.152 28.2527L182.068 42.9274" stroke="black" stroke-width="1.4" stroke-linecap="round"/>
<path d="M195.912 28.7151L196.89 33.437" stroke="black" stroke-width="1.4" stroke-linecap="round"/>
<path d="M185.347 29.5049L188.833 36.4528" stroke="black" stroke-width="1.4" stroke-linecap="round"/>
<path d="M88.1844 176.834C92.6465 180.891 98.4226 180.815 101.556 179.402C102.11 181.681 101.83 186.258 96.2854 186.331C90.7403 186.405 88.5743 180.03 88.1844 176.834Z" stroke="black" stroke-width="1.4" stroke-linecap="round" stroke-linejoin="round"/>
<path d="M388.5 238.52C379.387 238.52 372 225.536 372 209.52C372 193.503 379.387 180.52 388.5 180.52" stroke="black" stroke-width="1.4" stroke-linecap="round"/>
<path d="M219.5 72.5193C220.667 74.8526 225.3 79.2193 234.5 78.0193" stroke="black" stroke-width="1.4" stroke-linecap="round" stroke-linejoin="round"/>
<path d="M218.5 84.5193C217 87.0193 215.5 88.5193 211 88.5193" stroke="black" stroke-width="1.4" stroke-linecap="round" stroke-linejoin="round"/>
<path d="M207 85.0193C202 90.0193 195.5 95.5193 197 111.019" stroke="black" stroke-width="1.4" stroke-linecap="round" stroke-linejoin="round"/>
<path d="M203 90.5193L204 104.519" stroke="black" stroke-width="1.4" stroke-linecap="round" stroke-linejoin="round"/>
<path d="M212.242 60.7289C207.204 62.4491 200.5 64.142 191.536 57.1453C189.61 59.5899 191.759 68.1545 193 70.5193C182.169 67.7683 183 56.0192 188 54.4835C189.054 41.6816 199.411 38.6044 205.98 42.8582C207 36.5193 214.032 34.3573 219 42.0193C222.037 48.6461 221.993 56.9249 221.236 63.1715C221.342 63.6715 221.327 64.2336 221.145 64.8516C221.053 65.1604 220.964 65.444 220.876 65.7049C220.597 67.4182 220.282 68.8916 220 70.0193L218.671 68.9243L218.681 68.9197C219.284 68.6363 220.002 68.2985 220.876 65.7049C221.006 64.9087 221.128 64.0607 221.236 63.1715C220.613 60.2382 215.819 59.4404 216.152 62.0077C216.59 65.3915 215.962 66.2067 215.356 66.3566C213.435 66.8313 211.981 62.4759 212.242 60.7289Z" fill="black" stroke="black" stroke-width="1.4" stroke-linecap="round" stroke-linejoin="round"/>
<path d="M195.5 74.0193C197 77.8526 202.3 84.7193 211.5 81.5193" stroke="black" stroke-width="1.4" stroke-linecap="round" stroke-linejoin="round"/>
<path d="M200.5 69.0193C201.333 69.8526 203 72.0193 202 75.5193" stroke="black" stroke-width="1.4" stroke-linecap="round" stroke-linejoin="round"/>
<path d="M208.5 72.0193C208.9 74.4193 205.667 76.0193 204 76.5193C206 76.8526 210.1 77.2193 210.5 76.0193C210.9 74.8193 209.333 72.8526 208.5 72.0193Z" stroke="black" stroke-width="1.4" stroke-linecap="round" stroke-linejoin="round"/>
<path d="M194 64.5193C194.167 63.8526 194.9 62.7193 196.5 63.5193" stroke="black" stroke-width="1.4" stroke-linecap="round" stroke-linejoin="round"/>
<path d="M219 28.5192C218.5 27.3525 218 24.8192 220 24.0192C222.5 23.0192 227.5 22.5192 228.5 24.0192C229.3 25.2192 229.333 26.6859 229 27.0193" stroke="black" stroke-width="1.4" stroke-linecap="round" stroke-linejoin="round"/>
<path d="M219.5 24.0194C216.5 21.186 210.9 15.2194 212.5 14.0194C214.1 12.8194 215.833 14.8527 216.5 16.0194C215.5 12.0194 213.9 3.91945 215.5 3.51945C217.1 3.11945 218.5 7.35278 219 9.51945C219 6.51942 219.3 0.619352 220.5 1.01935C222 1.51935 222.5 7.51929 222.5 9.51929C222.5 11.5193 224.731 1.51912 226 2.51929C227.015 3.31942 226.756 8.18601 226.5 10.5193C227.5 9.01929 229.7 6.21929 230.5 7.01929C231.3 7.81929 229.667 12.186 229 14.0194L227.5 23.0193" stroke="black" stroke-width="1.4" stroke-linecap="round" stroke-linejoin="round"/>
<path d="M219 83.0193C220 82.686 222.3 79.0193 221.5 75.0193" stroke="black" stroke-width="1.4" stroke-linecap="round" stroke-linejoin="round"/>
<path d="M209.54 89.6884C207.14 90.4884 206.833 86.6859 207 85.0192C207.4 82.6192 208.96 82.7491 208.96 83.3501C208.96 84.5193 210.815 89.2633 209.54 89.6884Z" stroke="black" stroke-width="1.4" stroke-linecap="round" stroke-linejoin="round"/>
<path d="M209 90.0193L210.5 100.519" stroke="black" stroke-width="1.4" stroke-linecap="round" stroke-linejoin="round"/>
<path d="M243 67.0193C239.8 67.0193 237 62.3526 236 60.0193V68.5193C238.5 71.5193 247 67.0193 243 67.0193Z" fill="black" stroke="black" stroke-width="1.4" stroke-linecap="round" stroke-linejoin="round"/>
<circle cx="227.5" cy="86.0193" r="2.5" fill="white"/>
<path d="M247.5 97.5193L234.5 77.5193C235 75.5193 236 70.0193 236 53.5193C236 40.3193 233 29.0193 230.5 27.5192C226 27.0192 222 27.5192 219 29.5192C216.6 31.1192 220 44.8525 222 51.5192C222.667 55.8525 223 66.2192 219 73.0192C216.647 77.0193 218 81.5193 219 84.0193L225.5 97.0193" stroke="black" stroke-width="1.4" stroke-linecap="round" stroke-linejoin="round"/>
<path d="M133.691 135.95L143.604 116.952L133.957 112.716L128.221 133.323L133.691 135.95Z" fill="white" stroke="black" stroke-width="1.4" stroke-linecap="round" stroke-linejoin="round"/>
<path d="M125.982 139.064L130.943 141.087L128.92 146.047L123.959 144.024L125.982 139.064Z" fill="white" stroke="black" stroke-width="1.4" stroke-linecap="round" stroke-linejoin="round"/>
</svg>
