<svg width="28" height="28" viewBox="0 0 28 28" fill="none" xmlns="http://www.w3.org/2000/svg">
<path d="M8.16667 9.33333C8.16667 6.11167 10.7783 3.5 14 3.5C17.2217 3.5 19.8333 6.11167 19.8333 9.33333C19.8333 12.555 17.2217 15.1667 14 15.1667C10.7783 15.1667 8.16667 12.555 8.16667 9.33333ZM14 12.8333C15.933 12.8333 17.5 11.2663 17.5 9.33333C17.5 7.40034 15.933 5.83333 14 5.83333C12.067 5.83333 10.5 7.40034 10.5 9.33333C10.5 11.2663 12.067 12.8333 14 12.8333Z" fill="#606060"/>
<path d="M7.40034 19.067C5.65 20.8173 4.66667 23.1913 4.66667 25.6667H7.00001C7.00001 23.8102 7.7375 22.0297 9.05026 20.7169C10.363 19.4042 12.1435 18.6667 14 18.6667C15.8565 18.6667 17.637 19.4042 18.9498 20.7169C20.2625 22.0297 21 23.8102 21 25.6667H23.3333C23.3333 23.1913 22.35 20.8173 20.5997 19.067C18.8493 17.3167 16.4754 16.3333 14 16.3333C11.5247 16.3333 9.15068 17.3167 7.40034 19.067Z" fill="#606060"/>
</svg>
