<svg width="248" height="244" viewBox="0 0 248 244" fill="none" xmlns="http://www.w3.org/2000/svg">
<rect width="248" height="244" fill="#1E1E1E"/>
<rect width="375" height="812" transform="translate(-69 -144)" fill="white"/>
<path d="M10.5 158C7.69999 159.2 4.99999 163.5 3.99999 165.5C0.999988 175 0.499988 180.5 1.99999 195.5C3.19999 207.5 9.49999 220.167 12.5 225V240.5L85 232.5L81.5 220.5L69.5 224.5C71.9 217.3 69.5 209.5 68 206.5L69 208L86 203C85 196.5 75 174.5 70.5 165.5C66 156.5 62.5 155.5 57.5 152.5C53.5 150.1 51.8333 151.5 51.5 152.5C53.5 153.3 56 155.167 57 156C63 161.5 64 171.5 63.5 170.5C63.1 169.7 62.3333 169.167 62 169C59.6 174.2 55.3333 173.5 53.5 172.5C51.9 175.3 49.1667 177 48 177.5C46 168.5 35.5 161.5 27 157.5C18.5 153.5 14 156.5 10.5 158Z" fill="#F1F1F1"/>
<path d="M104.406 179.5L98.4056 194C98.4056 194 99.5002 195.5 98.5 199C97.74 201.66 99.3366 205.5 105.837 203C110.337 201.269 113.182 198 113.337 197.5C115.503 190.5 119.739 179 120.406 177C121.239 174.5 119.906 174 118.906 174C116.906 174 111.706 174.2 108.906 175C106.106 175.8 104.739 178.333 104.406 179.5Z" fill="#1EDD81" stroke="black" stroke-width="1.4" stroke-linecap="round" stroke-linejoin="round"/>
<ellipse cx="108.717" cy="181.221" rx="1" ry="2" transform="rotate(20.0175 108.717 181.221)" fill="white"/>
<path d="M26.9538 210.479C28.1204 210.488 31.1597 210.613 34.3399 213.04C33.7594 202.534 29.6792 183 24.822 173.96" stroke="black" stroke-width="1.4" stroke-linecap="round" stroke-linejoin="round"/>
<path d="M69 208L79 205.5C82.5 204.5 89.7688 203.1 90.5688 201.5C91.5688 199.5 94.662 194 96.662 193.5C99.4871 192.794 98.8287 197.5 98.162 199C97.3287 201.5 99.0931 205.1 105.093 203.5C106.593 202.833 109.028 202.065 111.093 200C112.593 198.5 113.593 197.5 115.093 198C116.293 198.4 115.926 199.833 115.593 200.5C114.76 202.167 111.493 206 105.093 208" stroke="black" stroke-width="1.4" stroke-linecap="round" stroke-linejoin="round"/>
<path d="M112.093 205C112.426 206 112.593 208.4 110.593 210C108.593 211.6 105.426 213 104.093 213.5" stroke="black" stroke-width="1.4" stroke-linecap="round" stroke-linejoin="round"/>
<path d="M110.093 212C110.593 214 108.393 215.7 105.593 216.5C102.093 217.5 94.0931 217.5 91.5931 217L70.0931 224.5" stroke="black" stroke-width="1.4" stroke-linecap="round" stroke-linejoin="round"/>
<path d="M12.162 225C12.162 229.667 12.162 239.2 12.162 240" stroke="black" stroke-width="1.4" stroke-linecap="round" stroke-linejoin="round"/>
<path d="M67 171.5C71 182 76.5 203.5 77.5 205.5" stroke="black" stroke-width="1.4" stroke-linecap="round" stroke-linejoin="round"/>
<path d="M82.5931 222.5C83.0931 224.5 84.0931 228 85.0931 232" stroke="black" stroke-width="1.4" stroke-linecap="round" stroke-linejoin="round"/>
<path d="M85.0931 199.5C82.0931 190.5 75.5931 175 70.5931 165.5C66.9235 158.528 63.3043 155.106 59.0931 153C57.0931 152 55.4931 151.4 53.0931 151" stroke="black" stroke-width="1.4" stroke-linecap="round" stroke-linejoin="round"/>
<path d="M38.662 139C47.162 143.5 56.287 145.5 62.662 137C65.662 133 66.662 126.5 66.662 122" stroke="black" stroke-width="1.4" stroke-linecap="round" stroke-linejoin="round"/>
<path d="M52.662 126C53.4953 128 56.162 131.8 60.162 131" stroke="black" stroke-width="1.4" stroke-linecap="round" stroke-linejoin="round"/>
<path d="M50.662 143.5C49.4953 147 48.362 154.5 53.162 156.5" stroke="black" stroke-width="1.4" stroke-linecap="round" stroke-linejoin="round"/>
<path d="M29.5 129C30.1667 134.333 31.662 147.7 23.662 150.5" stroke="black" stroke-width="1.4" stroke-linecap="round" stroke-linejoin="round"/>
<path d="M26.5932 216C42.5932 210.4 59.5932 206.5 68.0932 206.5C72.4932 215.7 70.0932 224.5 68.0932 227.5C58.0932 233 36.5932 236.167 28.0932 235C10.8932 233 4.82867 210.667 2.162 196C-0.285009 181.506 1.4011 171.131 4.72336 164C7.28557 158.5 15.5 153.5 23 156C34.5 159.833 47 169 48 178C50.1667 176.5 54.9 171.9 56.5 165.5" stroke="black" stroke-width="1.4" stroke-linecap="round" stroke-linejoin="round"/>
<path d="M113.662 213.5C134.162 218.5 156.357 222.963 180.162 227.989C187.662 229.572 199.162 229 199.162 211C199.162 205.305 199.162 189.585 199.162 183M82.662 12.4888C82.6621 1.48315 93.162 -0.0111513 98.662 1.48885L182.162 20.9888C193.662 23.4888 199.162 29.9888 199.162 42.9888C199.162 52.2438 199.162 111.197 199.162 151M82.662 180C82.662 179.109 82.662 113.934 82.662 104M82.662 46.5C82.662 49.2871 82.662 36.1322 82.662 66" stroke="black" stroke-width="1.4" stroke-linecap="round" stroke-linejoin="round"/>
<path d="M54.662 101.913C55.4953 100.913 57.862 99.2127 60.662 100.413" stroke="black" stroke-width="1.4" stroke-linecap="round" stroke-linejoin="round"/>
<path d="M60 110C60 111.657 59.5523 113 59 113C58.4477 113 58 111.657 58 110C58 108.343 58.4477 107 59 107C59.5523 107 60 108.343 60 110Z" fill="black"/>
<ellipse cx="67.662" cy="110" rx="1" ry="3" fill="black"/>
<path d="M71.162 100C68.162 100 65.162 101.7 65.162 106.5C65.162 112.5 67.162 117.5 72.162 119.5" stroke="black" stroke-width="1.4" stroke-linecap="round" stroke-linejoin="round"/>
<path d="M61.6474 110.994C61.4078 112.714 60.6874 114.17 59.7531 115.139C58.8182 116.109 57.7159 116.554 56.6605 116.407C55.6051 116.26 54.6664 115.531 54.0322 114.342C53.3984 113.154 53.1034 111.557 53.343 109.837C53.5826 108.118 54.303 106.662 55.2373 105.693C56.1722 104.723 57.2745 104.278 58.3299 104.425C59.3852 104.572 60.324 105.301 60.9582 106.49C61.5919 107.677 61.887 109.275 61.6474 110.994Z" stroke="black" stroke-width="1.5"/>
<path d="M62.162 107.5C62.4953 107.167 63.462 106.6 64.662 107" stroke="black" stroke-width="1.4" stroke-linecap="round" stroke-linejoin="round"/>
<path d="M53.662 108L43.662 107.5" stroke="black" stroke-width="1.4" stroke-linecap="round" stroke-linejoin="round"/>
<path d="M65.662 107C66.8287 105.5 69.662 103.2 71.662 106C74.162 109.5 72.662 115.5 69.162 115.5" stroke="black" stroke-width="1.4" stroke-linecap="round" stroke-linejoin="round"/>
<path d="M234.784 127.95L244.697 108.952L235.05 104.716L229.314 125.323L234.784 127.95Z" stroke="black" stroke-width="1.4" stroke-linecap="round" stroke-linejoin="round"/>
<path d="M227.075 131.064L232.036 133.087L230.013 138.047L225.052 136.024L227.075 131.064Z" stroke="black" stroke-width="1.4" stroke-linecap="round" stroke-linejoin="round"/>
<path d="M161.662 66C158.495 69.5 153.562 75.7 159.162 78.5C163.662 80.75 168.826 82.3339 174.162 81C180.162 79.5 187.662 69.5 184.662 68L174.162 64.5" stroke="black" stroke-width="1.4" stroke-linecap="round" stroke-linejoin="round"/>
<path d="M166.662 57.9999C165.162 59.4999 162.662 59.4999 161.162 58.9999C161.162 59.8332 161.762 61.4999 164.162 61.4999C166.562 61.4999 166.829 59.1666 166.662 57.9999Z" stroke="black" stroke-width="1.4" stroke-linecap="round" stroke-linejoin="round"/>
<ellipse cx="166.606" cy="51.5811" rx="0.500031" ry="1.49996" transform="rotate(18.2099 166.606 51.5811)" fill="black"/>
<ellipse cx="160.606" cy="49.5811" rx="0.500031" ry="1.49996" transform="rotate(18.2099 160.606 49.5811)" fill="black"/>
<path d="M112.093 218C112.493 224 115.651 225.5 122.872 227L197.162 242.5C212.162 245.109 214.162 234.5 214.162 228.5V183.5M199.593 41L203.162 42C212.162 44.5 214.162 50 214.162 63C214.162 77.5104 214.162 110.37 214.162 156" stroke="black" stroke-width="1.4" stroke-linecap="round" stroke-linejoin="round"/>
<path d="M160.662 84.5C164.162 86 176.662 89.8 185.662 79C192.662 70.6 190.662 58 185.662 52" stroke="black" stroke-width="1.4" stroke-linecap="round" stroke-linejoin="round"/>
<path d="M164.162 66L166.162 72.5C166.495 73.5 167.762 75.4 170.162 75C173.162 74.5 174.662 73.5 175.162 71.5C175.569 69.873 174.162 64.1667 173.162 61.5" stroke="black" stroke-width="1.4" stroke-linecap="round" stroke-linejoin="round"/>
<path d="M157.662 49C156.162 55 155.562 66.7 165.162 65.5C165.995 65.3333 168.162 64.7 170.162 63.5" stroke="black" stroke-width="1.4" stroke-linecap="round" stroke-linejoin="round"/>
<path d="M166.162 44C166.662 46.8333 168.862 52.8 173.662 54" stroke="black" stroke-width="1.4" stroke-linecap="round" stroke-linejoin="round"/>
<path d="M163.162 46.5001C154.162 46.5001 159.562 35.3001 165.162 38.5001C165.495 39.0001 163.762 38.2002 166.162 37.0001C170.162 35 183.662 39.5001 178.162 52.0001" stroke="black" stroke-width="1.4" stroke-linecap="round" stroke-linejoin="round"/>
<path d="M130.641 105.948L130.641 123.5L119.594 115C111.474 113.121 91.558 108.628 85.5914 107.272C78.1331 105.576 77.3293 98.0529 78.0119 91.0684C78.5579 85.4807 83.6754 84.8808 86.1658 85.2793C96.6056 87.7193 118.877 92.9359 124.444 94.2817C130.011 95.6275 130.641 102.5 130.641 105.948Z" fill="#1EDD81"/>
<path d="M172.662 57.5515C174.162 58.0513 176.244 57.2238 177.162 56C178.662 54 177.162 52.9487 175.662 52.9487" stroke="black" stroke-width="1.4" stroke-linecap="round" stroke-linejoin="round"/>
<path d="M163.162 51C162.495 52.3333 160.662 55 158.662 55" stroke="black" stroke-width="1.4" stroke-linecap="round" stroke-linejoin="round"/>
<path d="M152.138 187.456C148.971 190.956 144.038 197.156 149.638 199.956C154.138 202.206 159.302 203.79 164.638 202.456C170.638 200.956 178.138 190.956 175.138 189.456L164.638 185.956" stroke="black" stroke-width="1.4" stroke-linecap="round" stroke-linejoin="round"/>
<path d="M157.138 179.456C155.638 180.956 153.138 180.956 151.638 180.456C151.638 181.29 152.238 182.956 154.638 182.956C157.038 182.956 157.305 180.623 157.138 179.456Z" stroke="black" stroke-width="1.4" stroke-linecap="round" stroke-linejoin="round"/>
<ellipse cx="157.082" cy="173.037" rx="0.500031" ry="1.49996" transform="rotate(18.2099 157.082 173.037)" fill="black"/>
<ellipse cx="151.082" cy="171.037" rx="0.500031" ry="1.49996" transform="rotate(18.2099 151.082 171.037)" fill="black"/>
<path d="M151.138 205.956C154.638 207.456 167.138 211.256 176.138 200.456C183.138 192.056 181.138 179.456 176.138 173.456" stroke="black" stroke-width="1.4" stroke-linecap="round" stroke-linejoin="round"/>
<path d="M154.638 187.456L156.638 193.956C156.971 194.956 158.238 196.856 160.638 196.456C163.638 195.956 165.138 194.956 165.638 192.956C166.045 191.329 164.638 185.623 163.638 182.956" stroke="black" stroke-width="1.4" stroke-linecap="round" stroke-linejoin="round"/>
<path d="M148.138 170.456C146.638 176.456 146.038 188.156 155.638 186.956C156.471 186.79 158.638 186.156 160.638 184.956" stroke="black" stroke-width="1.4" stroke-linecap="round" stroke-linejoin="round"/>
<path d="M142.093 169.32C144.967 169.449 151.27 168.601 153.486 164.177" stroke="black" stroke-width="1.4" stroke-linecap="round" stroke-linejoin="round"/>
<path d="M168.638 173.456C174.138 160.956 156.95 155.304 151.093 157.5C147.093 159 144.593 163 146.093 166.5" stroke="black" stroke-width="1.4" stroke-linecap="round" stroke-linejoin="round"/>
<path d="M163.138 179.008C164.638 179.508 166.72 178.68 167.638 177.456C169.138 175.456 167.638 174.405 166.138 174.405" stroke="black" stroke-width="1.4" stroke-linecap="round" stroke-linejoin="round"/>
<path d="M153.638 172.456C152.971 173.79 151.138 176.456 149.138 176.456" stroke="black" stroke-width="1.4" stroke-linecap="round" stroke-linejoin="round"/>
<path d="M142.967 128.468C139.908 131.746 135.142 137.553 140.552 140.175C144.899 142.283 149.904 143.827 155.043 142.517C160.555 141.112 168.042 133.619 165.627 131.278L156.449 128" stroke="black" stroke-width="1.4" stroke-linecap="round" stroke-linejoin="round"/>
<ellipse cx="147.828" cy="112.467" rx="0.480978" ry="1.4428" transform="rotate(15.7733 147.828 112.467)" fill="black"/>
<ellipse cx="141.109" cy="109.706" rx="0.480978" ry="1.4428" transform="rotate(15.7733 141.109 109.706)" fill="black"/>
<path d="M142.093 146.583C145.5 148.012 157.36 150.488 167.358 141.343C174.128 135.15 174.172 124.669 171.252 118" stroke="black" stroke-width="1.4" stroke-linecap="round" stroke-linejoin="round"/>
<path d="M145.093 127.29L147.552 133.543C147.88 134.505 149.126 136.332 151.486 135.948C154.436 135.467 155.912 134.986 156.895 132.581C157.879 130.176 154.928 124.565 153.945 122" stroke="black" stroke-width="1.4" stroke-linecap="round" stroke-linejoin="round"/>
<path d="M137.907 110C136.486 115.788 135.917 127.075 145.015 125.917C146.91 125.676 148.198 124.663 150.093 123.506" stroke="black" stroke-width="1.4" stroke-linecap="round" stroke-linejoin="round"/>
<path d="M142.163 102.473C143.758 104.735 148.114 109.03 152.784 108.11" stroke="black" stroke-width="1.4" stroke-linecap="round" stroke-linejoin="round"/>
<path d="M154.093 117.875C155.558 118.296 157.59 117.599 158.487 116.569C159.951 114.885 158.487 114 157.022 114" stroke="black" stroke-width="1.4" stroke-linecap="round" stroke-linejoin="round"/>
<path d="M138.093 105C136.627 102.094 136.041 96.2812 145.424 96.2812C148.356 96.4427 155.646 98.6469 157.992 103.297C162.227 103.458 169.427 106.397 164.345 116.859C162.879 120.734 160.826 126.837 164.345 128" stroke="black" stroke-width="1.4" stroke-linecap="round" stroke-linejoin="round"/>
<path d="M144.093 110C143.501 111.333 141.871 114 140.093 114" stroke="black" stroke-width="1.4" stroke-linecap="round" stroke-linejoin="round"/>
<path d="M141.093 119.286C141.548 120.143 144.275 120.429 146.093 119" stroke="black" stroke-width="1.4" stroke-linecap="round" stroke-linejoin="round"/>
<path d="M153.295 107C153.029 109.022 152.816 113.253 154.093 114" stroke="black" stroke-width="1.4" stroke-linecap="round" stroke-linejoin="round"/>
<path d="M99.3288 131.001L101.318 137.181C104.2 136.937 105.979 137.264 107.219 137.658C109.316 138.324 110.532 140.134 109.043 141.898C107.712 143.476 106.742 143.558 102.502 145.383C98.1284 147.265 97.1764 151.695 97.0615 156.1L104.902 156.412C104.819 155.442 105.24 152.809 106.43 151.399C107.893 149.985 109.452 150.078 112.528 148.44C115.145 147.046 119.71 140.994 115.256 134.534C111.692 129.367 103.153 130.026 99.3288 131.001Z" stroke="black" stroke-width="1.4" stroke-linecap="round" stroke-linejoin="round"/>
<circle cx="4.56655" cy="4.56655" r="3.86655" transform="matrix(-0.764316 -0.644842 -0.644842 0.764316 107.018 164.567)" stroke="black" stroke-width="1.4"/>
<path d="M149.686 51.2508L149.686 75.5L131.769 62.975C120.773 60.43 84.7875 50.9975 76.7074 49.1609C66.6072 46.865 65.5187 36.6765 66.443 27.2179C67.1825 19.651 74.1126 18.8386 77.4852 19.3782C91.6231 22.6826 133.755 33.6303 141.294 35.4528C148.832 37.2753 149.686 46.5 149.686 51.2508Z" fill="#1EDD81"/>
<path d="M155.884 166C157.293 167.889 160.791 171.866 163.505 172.664" stroke="black" stroke-width="1.4" stroke-linecap="round"/>
<path d="M146.593 46.2508L146.593 70.5L128.676 57.975C117.679 55.43 81.6942 45.9975 73.6141 44.1609C63.514 41.865 62.4254 31.6765 63.3498 22.2179C64.0893 14.651 71.0194 13.8386 74.392 14.3782C88.5298 17.6826 130.662 28.6303 138.2 30.4528C145.739 32.2753 146.593 41.5 146.593 46.2508Z" fill="white" stroke="black" stroke-width="1.4" stroke-linecap="round" stroke-linejoin="round"/>
<path d="M127.641 101.948L127.641 119.5L116.594 111C108.474 109.121 88.558 104.628 82.5914 103.272C75.1331 101.576 74.3293 94.0529 75.0119 87.0684C75.5579 81.4807 80.6754 80.8808 83.1658 81.2793C93.6056 83.7193 115.877 88.9359 121.444 90.2817C127.011 91.6275 127.641 98.5 127.641 101.948Z" fill="white" stroke="black" stroke-width="1.4" stroke-linecap="round" stroke-linejoin="round"/>
<path d="M44.6619 103.5C50.6619 102.7 51.4953 97.4998 51.1619 94.9998C71.6619 103.5 104.162 85.6911 88.6619 72.4998C73.6864 59.7547 54.4953 68.3332 48.1619 73.9998C23.6876 54.3635 10.2278 68.0945 5.66194 85.6911C2.20586 99.0108 3.0001 115 9.49999 121C22.5 133 35 121 36 119.5C37 118 36 118 32.5 117C29 116 23.1619 109 29.1619 104.5C35.1619 99.9998 35.6619 105 40.1619 112C43.7619 117.6 44.6619 108.667 44.6619 103.5Z" fill="black" stroke="black" stroke-width="1.4" stroke-linecap="round" stroke-linejoin="round"/>
<path d="M198.982 158.389C191.871 156.686 190.093 160.989 190.093 163.354V189.245L203.179 182.484C210.244 184.139 235.07 190.631 239.446 191.766C243.822 192.901 245.6 189.638 245.942 187.864C246.056 184.672 246.216 177.366 245.942 173.677C245.669 169.989 241.498 168.121 239.446 167.648C231.925 166.111 206.093 160.091 198.982 158.389Z" fill="#1EDD81"/>
<path d="M195.982 155.389C188.871 153.686 187.093 157.989 187.093 160.354V186.245L200.179 179.484C207.244 181.139 232.07 187.631 236.446 188.766C240.822 189.901 242.6 186.638 242.942 184.864C243.056 181.672 243.216 174.366 242.942 170.677C242.669 166.989 238.498 165.121 236.446 164.648C228.925 163.111 203.093 157.091 195.982 155.389Z" fill="white" stroke="black" stroke-width="1.4" stroke-linecap="round" stroke-linejoin="round"/>
<path d="M197.093 164L232.593 172.5" stroke="black" stroke-width="1.4" stroke-linecap="round"/>
<path d="M225.093 177.204L205.593 172.535" stroke="black" stroke-width="1.4" stroke-linecap="round"/>
<path d="M76.0931 25L81.0931 26.3043L104.093 32.5M133.593 40.5L117.093 36M113.593 35L108.093 33.5" stroke="black" stroke-width="1.4" stroke-linecap="round"/>
<path d="M94.0931 92L116.093 97" stroke="black" stroke-width="1.4" stroke-linecap="round"/>
<path d="M85.0931 97L115.093 103.5" stroke="black" stroke-width="1.4" stroke-linecap="round"/>
<path d="M76.0931 33L89.0931 36.3913L121.593 44.8696" stroke="black" stroke-width="1.4" stroke-linecap="round"/>
<path d="M59.5 165.5C60.5 166.5 62.7 169 63.5 171C64.5 173.5 63.5 163 57 156" stroke="black" stroke-width="1.4" stroke-linecap="round" stroke-linejoin="round"/>
<path d="M54 172.5C56.5 173.5 60.8 173.7 62 168.5" stroke="black" stroke-width="1.4" stroke-linecap="round" stroke-linejoin="round"/>
<path d="M9.5 154.5C13.5 146 26.2 149.399 39 158.599C51.8 167.799 56.4 163.599 57 162.099C57.5 160.849 56.7 159.399 55.5 158.599" stroke="black" stroke-width="1.4" stroke-linecap="round" stroke-linejoin="round"/>
</svg>
