<svg width="278" height="229" viewBox="0 0 278 229" fill="none" xmlns="http://www.w3.org/2000/svg">
<path d="M130.403 59.271C129.778 63.0205 126.884 71.0303 125.652 75.0779C132.147 80.413 145.385 83.0842 150.993 82.4377C146.77 71.745 153.105 70.6891 153.105 70.6891C153.105 70.6891 151.087 66.2251 148.955 56.4347C147.723 50.7797 146.426 44.0273 145.714 36.9005C145.186 31.6211 144.482 30.0371 144.13 29.5092C143.778 28.9813 142.251 27.576 140.962 29.5092C140.627 30.0126 140.434 31.093 140.434 32.8421C140.434 35.1165 140.258 49.5919 140.434 56.1032H138.85C138.85 56.1032 137.795 33.9295 136.739 30.7617C135.683 27.594 133.571 29.7057 133.571 31.8176C132.515 38.329 130.931 56.1033 130.403 59.271Z" fill="#1EDD81"/>
<path d="M128.291 60.6902C127.667 64.4397 124.772 72.4494 123.54 76.497C130.035 81.8321 143.273 85.0628 148.881 84.4162C156.038 83.5912 152.577 77.025 152.577 77.025C152.577 77.025 144.658 57.5224 143.602 37.9884C143.439 34.9792 143.074 32.6772 142.546 31.0935C141.49 27.9258 138.85 31.6215 138.322 34.2612C137.876 36.4915 138.146 51.0111 138.322 57.5224H136.739C136.739 57.5224 135.683 35.3486 134.627 32.1809C133.571 29.0131 131.459 31.1249 131.459 33.2368C130.403 39.7481 128.819 57.5225 128.291 60.6902Z" fill="white"/>
<path fill-rule="evenodd" clip-rule="evenodd" d="M70.3549 129.819L64.5475 122.956L62.4357 121.372C106.783 113.347 120.51 86.1757 121.566 73.8569L141.1 84.9439C122.86 137.198 98.1768 143.422 92.4066 144.877L92.4065 144.878C91.997 144.981 91.6828 145.06 91.4729 145.13C88.9387 145.975 86.1934 145.13 85.1375 144.602L86.1934 146.714C98.8642 163.608 107.311 209.54 105.727 219.043C104.46 226.645 91.4729 226.786 85.1375 225.906L86.1934 219.571C90.6174 203.841 87.261 186.738 84.2205 171.245C83.9954 170.098 83.772 168.96 83.5536 167.832C81.0195 154.739 76.5143 145.13 74.5785 141.962C74.5785 137.316 71.7628 131.931 70.3549 129.819ZM45.4062 132.498C35.6919 127.429 27.6319 132.498 24.8162 135.665C19.5367 140.417 10.0336 159.951 7.92182 171.038C5.81003 182.125 3.69823 205.355 19.5367 219.081C32.2075 230.063 48.7498 228.232 55.4372 225.945C57.7175 224.804 59.4506 220.381 61.6213 214.842C62.466 212.686 63.377 210.361 64.4123 207.994C68.108 199.547 69.1639 181.597 68.108 169.982C67.2632 160.69 63.5324 150.976 61.7726 147.28L59.6608 148.336C58.9569 145.168 55.1204 137.566 45.4062 132.498ZM36.9589 164.702C39.5987 172.622 39.0707 185.82 35.3751 195.324C31.3275 192.684 25.9776 182.864 36.9589 164.702Z" fill="#F1F1F1"/>
<path d="M64.4097 144.074L60.1861 148.298L62.2979 157.801L53.3228 226.434H54.9066L57.5463 222.738L70.7451 224.322L77.6084 210.596L79.7202 212.707L78.6643 225.378L88.1674 226.434C97.8816 203.627 85.1757 162.024 77.6084 144.074L73.9128 141.434C71.801 146.08 66.6975 145.13 64.4097 144.074Z" fill="#F1F1F1"/>
<path d="M71.9388 85.9997C63.914 83.8879 61.9078 75.6167 61.9078 71.7451C61.8618 69.9852 62.4035 66.4656 64.9377 66.4656" stroke="black" stroke-width="1.4" stroke-linecap="round"/>
<ellipse cx="57.752" cy="76.2183" rx="1.07632" ry="3.2812" transform="rotate(-9.86972 57.752 76.2183)" fill="black"/>
<path d="M46.5973 106.59C56.1056 111.344 69.827 106.59 67.1873 87.5835" stroke="black" stroke-width="1.4" stroke-linecap="round"/>
<path d="M47.6532 69.1056C47.6532 60.8075 54.8685 61.5383 59.796 62.7702C68.2431 64.882 78.8021 56.9626 72.4667 46.4037C66.7794 36.9249 52.0528 43.94 48.7091 47.9876L48.6811 47.9736C45.5164 46.3912 41.2882 44.2771 31.2868 43.7642C14.8148 42.9194 10.6968 56.4349 10.6968 63.2983C6.64923 62.4183 -1.12921 63.7206 0.137869 75.969C1.72171 91.2795 11.7527 98.6708 20.7279 102.366C29.703 106.062 42.3737 98.6706 44.4855 96.0308C46.5973 93.3911 42.9016 91.2795 38.6781 91.2795C35.5104 91.2795 32.3427 87.0559 33.3986 81.2485C34.4545 75.4411 39.014 76.7526 40.2619 79.6644C41.8457 83.3601 44.4855 85.9998 46.5973 84.416C48.709 82.8321 47.6532 79.6644 47.6532 69.1056Z" fill="black"/>
<path d="M51.7691 69.437C52.4712 68.0064 54.499 65.5422 56.993 67.13" stroke="black" stroke-width="1.4" stroke-linecap="round"/>
<path d="M52.0726 90.0842C55.9395 94.7122 61.6721 95.4246 64.9691 94.4518C65.2066 96.7855 64.3057 101.282 58.8025 100.598C53.2992 99.9141 52.0229 93.3038 52.0726 90.0842Z" stroke="black" stroke-width="1.4" stroke-linecap="round" stroke-linejoin="round"/>
<path d="M36.0383 105.006C37.2702 108.877 38.9948 117.36 36.0383 120.316" stroke="black" stroke-width="1.4" stroke-linecap="round"/>
<path d="M57.1562 110.285C57.1562 113.805 58.8457 121.372 65.6034 123.484" stroke="black" stroke-width="1.4" stroke-linecap="round"/>
<path d="M110.479 66.9935L115.231 64.3538" stroke="black" stroke-width="1.4" stroke-linecap="round"/>
<path d="M112.063 48.5154H115.231" stroke="black" stroke-width="1.4" stroke-linecap="round"/>
<path d="M102.56 27.9253L117.87 39.0122" stroke="black" stroke-width="1.4" stroke-linecap="round"/>
<path d="M123.15 14.1987L126.317 20.0062" stroke="black" stroke-width="1.4" stroke-linecap="round"/>
<path d="M138.323 1V16.8385" stroke="black" stroke-width="1.4" stroke-linecap="round"/>
<path d="M150.993 21.5899L154.689 14.7266" stroke="black" stroke-width="1.4" stroke-linecap="round"/>
<path d="M155.217 39.8787L172.445 24.2599" stroke="black" stroke-width="1.4" stroke-linecap="round"/>
<path d="M158.385 50.5908L161.718 50.3953" stroke="black" stroke-width="1.4" stroke-linecap="round"/>
<path d="M158.385 63.8259L161.552 65.4098" stroke="black" stroke-width="1.4" stroke-linecap="round"/>
<path d="M124.206 73.3289C125.262 70.1612 127.479 62.9811 127.901 59.6022C128.324 56.2234 130.189 40.2441 131.069 32.6768C131.245 31.269 131.839 29.3662 133.181 30.0371C134.523 30.708 134.237 32.1489 134.765 35.3166L136.349 56.9625" stroke="black" stroke-width="1.4" stroke-linecap="round"/>
<path d="M153.105 76.4967C149.937 71.2172 148.491 65.4096 146.908 59.6024C146.012 56.3172 143.564 40.3832 142.684 32.816C142.508 31.4081 141.914 29.3665 140.572 30.0374C139.23 30.7083 137.932 34.7889 137.932 39.0125V56.9626" stroke="black" stroke-width="1.4" stroke-linecap="round"/>
<path d="M135.42 79.5089C137.621 77.9375 138.316 74.9089 138.46 72.2731L136.376 57.463C136.463 55.8815 135.467 54.7694 134.412 54.7116C131.882 54.573 131.568 62.9796 130.686 67.2431C130.356 68.8419 129.995 70.9703 128.729 71.0224" stroke="black" stroke-width="1.4" stroke-linecap="round"/>
<path d="M205.9 118.732C182.248 117.043 172.639 105.534 154.035 71.2171C153.469 70.1729 151.838 70.7947 150.993 71.2171" stroke="black" stroke-width="1.4" stroke-linecap="round" stroke-linejoin="round"/>
<path d="M137.932 96.0308C141.1 111.869 154.932 141.857 189.143 145.658" stroke="black" stroke-width="1.4" stroke-linecap="round"/>
<path d="M192.839 136.683C188.088 151.465 178.373 190.322 177.529 227.49" stroke="black" stroke-width="1.4" stroke-linecap="round"/>
<path d="M209.206 118.732C206.39 124.892 204.982 135.099 212.373 135.099C215.403 135.099 217.525 131.654 220.682 127.708C222.794 125.068 226.49 121.372 229.795 119.788" stroke="black" stroke-width="1.4" stroke-linecap="round"/>
<path d="M200.23 94.9749C200.758 102.894 203.894 116.093 223.322 107.646" stroke="black" stroke-width="1.4" stroke-linecap="round"/>
<path d="M201.286 78.0805C207.622 75.9687 205.14 88.2782 197.063 89.6952" stroke="black" stroke-width="1.4" stroke-linecap="round"/>
<ellipse cx="209.716" cy="82.7928" rx="1.20059" ry="2.39296" transform="rotate(12.8846 209.716 82.7928)" fill="black"/>
<ellipse cx="202.84" cy="81.9512" rx="0.864152" ry="2.2294" transform="rotate(4.2183 202.84 81.9512)" fill="black"/>
<path d="M214.168 80.2876C213.423 78.9936 212.03 78.0725 210.382 78.8541" stroke="black" stroke-width="1.4" stroke-linecap="round"/>
<path d="M204.982 101.31C206.39 102.014 209.839 102.366 212.373 98.1426" stroke="black" stroke-width="1.4" stroke-linecap="round" stroke-linejoin="round"/>
<path d="M248.802 127.18C259.536 146.362 280.056 192.645 276.255 224.322" stroke="black" stroke-width="1.4" stroke-linecap="round" stroke-linejoin="round"/>
<path d="M237.715 156.217C242.466 172.055 252.286 207.533 253.553 222.738" stroke="black" stroke-width="1.4" stroke-linecap="round" stroke-linejoin="round"/>
<path d="M142.684 97.0866C140.994 90.7513 144.444 84.9438 146.38 82.832L151.131 88.6395L150.075 91.8072C147.963 97.7202 144.268 97.7906 142.684 97.0866Z" fill="black"/>
<path d="M144.871 68.3785C144.11 64.0452 141.964 55.4883 139.468 55.9266C138.428 56.1092 137.571 57.3318 137.845 58.8918L139.088 72.0742C139.544 74.6742 140.594 77.5988 142.966 78.8975C145.852 80.4771 147.963 84.3103 150.075 88.1115" stroke="black" stroke-width="1.4" stroke-linecap="round"/>
<path d="M138.988 93.3911C139.516 94.975 140.572 96.5588 141.628 97.0868C149.57 101.058 153.105 82.6562 153.633 74.385C153.633 73.681 153.633 71.6396 153.633 71.2173" stroke="black" stroke-width="1.4" stroke-linecap="round"/>
<path d="M227.249 81.7762C219.647 80.9314 210.5 79.5 203.5 64C199.5 66 198.833 74.1667 199 78C186.6 67.799 194.5 59.7497 200 57.0001C209.2 41.0001 223.407 46.3334 229.361 51C239.222 39 250.727 55 252.5 68C254 79 251.5 93 249 108C247 120 255.167 123 259.5 123C258 125 255 126.5 249.5 126.5C241.254 126.5 231.343 119 228.305 112.925C224.843 106 227.777 98.8465 229.361 95.5028C230.417 95.5028 233.374 94.5525 236.752 90.7513C240.976 85.9998 233.332 79.8552 232 84C230.5 88.6675 229.185 89.3434 228.305 89.1674C224.082 88.3227 225.841 83.888 227.249 81.7762Z" fill="black" stroke="black" stroke-width="1.4" stroke-linecap="round" stroke-linejoin="round"/>
<path d="M215.013 111.341C215.189 114.861 214.485 122.111 210.261 122.956" stroke="black" stroke-width="1.4" stroke-linecap="round" stroke-linejoin="round"/>
<path d="M62.4357 120.844C64.0195 121.372 115.758 111.869 121.566 73.8569L141.628 84.9439C135.117 104.126 115.547 143.018 89.361 145.13" stroke="black" stroke-width="1.4" stroke-linecap="round" stroke-linejoin="round"/>
<path d="M141.1 78.0806C140.22 78.7845 138.46 80.7203 138.46 82.8321" stroke="black" stroke-width="1.4" stroke-linecap="round" stroke-linejoin="round"/>
<path d="M23.8955 131.403C26.8872 126.652 36.2495 119.577 49.765 129.291C63.2805 139.006 66.5537 135.627 67.1873 134.043C67.7152 132.723 66.8705 131.192 65.6034 130.347" stroke="black" stroke-width="1.4" stroke-linecap="round" stroke-linejoin="round"/>
<path d="M70.355 136.683C71.4108 137.739 73.7338 140.379 74.5785 142.49C75.6344 145.13 74.5785 134.043 67.7152 126.652" stroke="black" stroke-width="1.4" stroke-linecap="round" stroke-linejoin="round"/>
<path d="M40.2618 158.329C30.7588 172.055 21.7836 196.341 44.372 198.453" stroke="black" stroke-width="1.4" stroke-linecap="round" stroke-linejoin="round"/>
<path d="M76.6902 130.347C86.7213 144.25 105.305 178.496 105.727 219.043C105.376 222.562 98.3362 229.074 78.2742 225.378L79.858 214.291C79.858 211.123 77.7462 208.484 75.6344 214.291L70.8829 224.85C68.3234 224.498 62.0718 224.85 57.5406 222.738C56.681 224.156 55.8388 225.392 55.0444 226.434C27.5911 231.925 13.6885 216.051 10.1688 207.428C2.14398 187.999 7.52898 170.471 10.1687 162.552C12.6171 155.526 18.4782 142.629 23.2297 136.683C26.183 132.987 31.5713 128.235 39.5961 130.347C50.683 133.265 55.4346 139.323 59.6582 148.825C61.066 148.297 64.7265 145.447 68.1053 138.266" stroke="black" stroke-width="1.4" stroke-linecap="round" stroke-linejoin="round"/>
<path d="M45.0134 194.757C48.8851 197.397 55.7836 206.161 52.4047 220.099" stroke="black" stroke-width="1.4" stroke-linecap="round" stroke-linejoin="round"/>
<path d="M37.0942 165.192C40.2619 176.279 37.1998 191.906 35.5104 195.285" stroke="black" stroke-width="1.4" stroke-linecap="round" stroke-linejoin="round"/>
<circle cx="208.012" cy="145.658" r="1.0559" fill="black"/>
<circle cx="206.956" cy="159.385" r="1.0559" fill="black"/>
<circle cx="206.956" cy="175.223" r="1.0559" fill="black"/>
<path d="M60.5104 77.2368C60.7867 79.0791 60.576 80.755 60.0509 81.9689C59.5194 83.1977 58.7304 83.8352 57.9055 83.9144C57.0806 83.9937 56.1255 83.5237 55.2458 82.4305C54.3768 81.3505 53.6767 79.7621 53.4005 77.9197C53.1242 76.0774 53.3349 74.4015 53.86 73.1876C54.3915 71.9588 55.1805 71.3213 56.0054 71.2421C56.8303 71.1628 57.7854 71.6328 58.6651 72.726C59.5341 73.806 60.2342 75.3944 60.5104 77.2368Z" stroke="black" stroke-width="1.5"/>
<path d="M60.0768 73.5482C60.2653 73.1329 60.9222 72.3363 62.0406 72.4723" stroke="black" stroke-width="1.4" stroke-linecap="round" stroke-linejoin="round"/>
<path d="M53.07 75.983L44.5278 77.7378" stroke="black" stroke-width="1.4" stroke-linecap="round" stroke-linejoin="round"/>
<path d="M62.2979 73.329C62.242 72.0547 63.1214 69.4801 64.1852 71.6002C65.5151 74.2503 66.4661 79.1515 65.6624 79.368" stroke="black" stroke-width="1.4" stroke-linecap="round" stroke-linejoin="round"/>
<path d="M65 144.5C67.5 145.5 72.8 146.2 74 141" stroke="black" stroke-width="1.4" stroke-linecap="round" stroke-linejoin="round"/>
</svg>
