<svg width="311" height="173" viewBox="0 0 311 173" fill="none" xmlns="http://www.w3.org/2000/svg">
<path d="M160.017 134.798C159.107 129.797 162.669 123.621 164.564 121.158L168.542 123.431C172.18 124.34 172.331 121.537 171.952 120.021H174.226L174.794 122.294C170.247 127.296 169.868 132.714 170.247 134.798H160.017Z" fill="#1EDD81"/>
<path d="M252.658 133.662C252.658 128.546 250.953 123.999 249.248 123.999C247.543 123.999 244.701 120.021 244.701 120.021C242.996 122.863 242.428 122.294 240.155 122.294L237.881 121.726L237.881 123.431C242.428 128.433 242.239 131.578 241.86 133.662H252.658Z" fill="#1EDD81"/>
<path fill-rule="evenodd" clip-rule="evenodd" d="M8.26611 171.039C15.8442 135.612 33.6147 58.0504 44.0724 31.2241C51.4611 13.6051 61.1231 9.62664 67.9433 8.48993C91.6248 4.32199 157.061 -2.19514 229.356 5.0798C231.718 5.58594 233.93 5.97275 236.01 6.33653C247.944 8.42382 255.545 9.75307 262.321 28.5156C270.459 51.0498 299.264 137.071 301.537 172.176C297.392 172.176 279.251 172.084 253.304 171.952C188.168 171.621 73.8398 171.039 8.26611 171.039ZM54.8713 28.5157C57.431 22.2638 61.1232 18.298 69.6486 15.4434C83.8574 10.6857 194.686 4.80997 233.903 13.9469C242.428 15.9332 248.112 18.973 249.817 22.6988C264.574 54.9455 273.234 94.2351 280.75 128.336C281.05 129.696 281.348 131.048 281.645 132.391C261.184 135.991 137.851 136.37 27.022 132.96C30.6216 112.158 39.8668 65.1638 54.8713 28.5157Z" fill="#F1F1F1"/>
<path d="M161.722 5.21313H157.175V14.3068H161.722V5.21313Z" stroke="black" stroke-width="1.4" stroke-linecap="round" stroke-linejoin="round"/>
<path d="M154.333 9.76001H142.398V21.1271H176.499V9.76001H163.995" stroke="black" stroke-width="1.4" stroke-linecap="round" stroke-linejoin="round"/>
<path d="M72.4902 20.5588L67.375 25.674" stroke="black" stroke-width="1.4" stroke-linecap="round" stroke-linejoin="round"/>
<path d="M83.2889 16.5803L61.123 40.4512" stroke="black" stroke-width="1.4" stroke-linecap="round" stroke-linejoin="round"/>
<path d="M27.5903 130.251C33.2739 103.349 46.346 46.7032 56.5764 25.6741" stroke="black" stroke-width="1.4" stroke-linecap="round" stroke-linejoin="round"/>
<path d="M281.645 130.251C277.287 108.275 265.049 56.3652 250.953 24.5374" stroke="black" stroke-width="1.4" stroke-linecap="round" stroke-linejoin="round"/>
<path d="M305.516 102.885C300.969 99.2473 292.065 106.57 288.465 110.359L293.012 127.409L293.091 127.409C295.364 127.41 298.754 127.41 303.811 125.051C312.336 121.072 311.199 107.432 305.516 102.885Z" fill="#F1F1F1"/>
<path d="M5.92375 102.819C10.4706 99.1818 19.3749 106.504 22.9744 110.293L18.4276 127.344L18.3484 127.344C16.0752 127.344 12.685 127.345 7.62881 124.985C-0.896561 121.007 0.240205 107.366 5.92375 102.819Z" fill="#F1F1F1"/>
<path d="M91.2461 153.554H222.536" stroke="black" stroke-width="1.4" stroke-linecap="round" stroke-linejoin="round"/>
<path d="M34.4104 132.525C81.2049 134.04 195.368 136.162 277.666 132.525" stroke="black" stroke-width="1.4" stroke-linecap="round" stroke-linejoin="round"/>
<path d="M214.579 42.1562H207.19C200.37 39.8829 196.936 42.1562 194.686 44.4295C191.844 47.3015 191.938 52.2991 191.276 56.9334C191.276 56.9334 189.571 56.9334 188.434 56.365C187.298 55.7967 187.298 52.9555 187.298 49.5455V49.5447C187.298 46.1344 187.515 40.3895 192.413 35.3359C198.096 29.4712 209.675 27.9922 213.442 33.0627C216.284 31.3576 224.047 31.3575 227.082 41.0195C229.225 47.8398 229.158 55.6015 228.219 55.7967C226.429 56.1688 224.809 57.502 224.809 57.502C221.967 55.2286 221.909 51.0749 220.831 47.8399C220.262 46.1349 219.125 42.1562 214.579 42.1562Z" fill="#B5B5B5" stroke="black" stroke-width="1.4" stroke-linecap="round" stroke-linejoin="round"/>
<path d="M186.729 108.853C206.053 100.697 220.262 104.675 231.061 113.769C230.872 113.011 230.947 111.495 232.766 111.495C232.008 110.359 231.288 107.29 234.471 104.107C229.356 99.9391 214.92 92.5126 198.097 96.1501C194.686 96.7184 186.616 98.7645 181.614 102.402C182.751 103.671 185.138 106.738 185.593 108.853H186.729Z" fill="#1EDD81"/>
<path d="M242.997 92.7397C249.817 92.7397 252.09 96.1499 256.069 102.97C261.705 112.632 265.731 124.568 266.867 130.251" stroke="black" stroke-width="1.4" stroke-linecap="round" stroke-linejoin="round"/>
<path d="M183.32 91.603C166.269 92.7397 163.654 100.583 160.017 106.949C156.38 113.314 151.681 125.325 149.218 129.683" stroke="black" stroke-width="1.4" stroke-linecap="round" stroke-linejoin="round"/>
<path d="M224.241 113.769C221.778 117.558 215.602 126.387 210.6 131.388" stroke="black" stroke-width="1.4" stroke-linecap="round" stroke-linejoin="round"/>
<path d="M214.579 109.791C212.116 113.58 201.507 126.273 196.392 130.82" stroke="black" stroke-width="1.4" stroke-linecap="round" stroke-linejoin="round"/>
<path d="M258.91 60.3435C255.879 66.7849 247.089 83.1914 236.176 97.2865" stroke="black" stroke-width="1.4" stroke-linecap="round" stroke-linejoin="round"/>
<path d="M181.614 112.064C183.509 112.064 186.843 111.041 185.024 106.949C183.206 102.857 180.288 100.697 178.773 100.128C177.257 99.5601 174.226 99.3327 174.226 102.97C172.521 102.402 168.656 104.334 169.111 107.517C167.405 106.949 164.677 108.313 165.132 111.496C162.859 111.496 160.585 112.064 161.154 115.474C161.722 118.884 166.269 122.673 168.542 123.431C170.816 124.189 172.407 122.294 171.952 120.021L167.405 114.906" stroke="black" stroke-width="1.4" stroke-linecap="round" stroke-linejoin="round"/>
<path d="M176.499 106.949L180.868 111.864C181.058 113.759 180.414 117.207 176.321 115.843L171.952 110.927" stroke="black" stroke-width="1.4" stroke-linecap="round" stroke-linejoin="round"/>
<path d="M176.499 116.042C176.499 117.748 176.158 120.476 172.521 120.021" stroke="black" stroke-width="1.4" stroke-linecap="round" stroke-linejoin="round"/>
<path d="M184.456 111.496C185.593 111.496 187.411 111.382 185.593 115.474C183.319 120.589 178.1 123.664 175.362 122.294C174.226 121.726 173.657 120.779 174.226 120.021" stroke="black" stroke-width="1.4" stroke-linecap="round" stroke-linejoin="round"/>
<path d="M233.246 111.496C232.11 111.496 230.291 111.382 232.11 115.474C234.383 120.589 239.603 123.664 242.34 122.294C243.477 121.726 244.045 120.779 243.477 120.021" stroke="black" stroke-width="1.4" stroke-linecap="round" stroke-linejoin="round"/>
<path d="M236.088 112.064C234.193 112.064 230.859 111.041 232.678 106.949C234.497 102.857 237.414 100.697 238.93 100.128C240.445 99.5601 243.476 99.3327 243.476 102.97C245.182 102.402 249.046 104.334 248.592 107.517C250.297 106.949 253.025 108.313 252.57 111.496C254.844 111.496 257.117 112.064 256.549 115.474C255.98 118.884 251.433 122.673 249.16 123.431C246.887 124.189 245.295 122.294 245.75 120.021L250.297 114.906" stroke="black" stroke-width="1.4" stroke-linecap="round" stroke-linejoin="round"/>
<path d="M241.203 106.949L236.834 111.864C236.645 113.759 237.289 117.207 241.381 115.843L245.75 110.927" stroke="black" stroke-width="1.4" stroke-linecap="round" stroke-linejoin="round"/>
<path d="M241.203 116.042C241.203 117.748 241.544 120.476 245.182 120.021" stroke="black" stroke-width="1.4" stroke-linecap="round" stroke-linejoin="round"/>
<path d="M241.86 131.388C241.67 130.062 240.382 126.273 236.745 121.726" stroke="black" stroke-width="1.4" stroke-linecap="round" stroke-linejoin="round"/>
<path d="M170.247 131.956C170.437 130.63 171.156 126.841 174.794 122.294" stroke="black" stroke-width="1.4" stroke-linecap="round" stroke-linejoin="round"/>
<path d="M160.017 131.956C160.206 130.63 160.926 125.705 164.563 121.158" stroke="black" stroke-width="1.4" stroke-linecap="round" stroke-linejoin="round"/>
<path d="M252.09 130.82C251.901 129.493 250.953 126.273 249.248 123.431" stroke="black" stroke-width="1.4" stroke-linecap="round" stroke-linejoin="round"/>
<path d="M233.903 104.107C226.135 97.8551 205.258 88.6479 181.614 101.834" stroke="black" stroke-width="1.4" stroke-linecap="round" stroke-linejoin="round"/>
<path d="M228.788 112.064C221.02 105.812 205.485 100.128 186.729 109.222" stroke="black" stroke-width="1.4" stroke-linecap="round" stroke-linejoin="round"/>
<path d="M254.932 46.1348C248.869 57.6913 234.698 83.1915 226.514 92.7398" stroke="black" stroke-width="1.4" stroke-linecap="round" stroke-linejoin="round"/>
<ellipse cx="1.13671" cy="2.27342" rx="1.13671" ry="2.27342" transform="matrix(-1 0 0 1 214.01 56.3652)" fill="black"/>
<ellipse cx="1.13671" cy="2.27342" rx="1.13671" ry="2.27342" transform="matrix(-1 0 0 1 201.507 56.3652)" fill="black"/>
<path d="M225.946 87.4756C225.567 86.3389 223.331 84.7475 217.42 87.4756C211.51 90.2037 210.6 92.1715 210.6 92.1715" stroke="black" stroke-width="1.4" stroke-linecap="round" stroke-linejoin="round"/>
<path d="M185.593 91.4542C185.972 90.3175 187.298 82.9289 194.686 87.2772C202.075 91.6254 202.643 92.1716 202.643 92.1716" stroke="black" stroke-width="1.4" stroke-linecap="round" stroke-linejoin="round"/>
<path d="M233.334 79.0994H221.967" stroke="black" stroke-width="1.4" stroke-linecap="round" stroke-linejoin="round"/>
<path d="M193.55 79.0994H178.204C173.657 79.0994 165.132 81.0318 165.132 88.7614C165.132 96.491 165.132 97.4762 165.132 98.4234" stroke="black" stroke-width="1.4" stroke-linecap="round" stroke-linejoin="round"/>
<path d="M249.817 81.9412C251.143 82.1306 254.25 84.2146 256.069 91.0348C257.887 97.8551 259.1 103.349 259.479 105.244" stroke="black" stroke-width="1.4" stroke-linecap="round" stroke-linejoin="round"/>
<path d="M205.485 59.7751C204.917 62.6169 204.348 64.322 202.643 64.8903" stroke="black" stroke-width="1.4" stroke-linecap="round" stroke-linejoin="round"/>
<path d="M203.113 70.5298C204.238 71.4338 207.576 72.7199 211.936 70.6324" stroke="black" stroke-width="1.4" stroke-linecap="round" stroke-linejoin="round"/>
<path d="M185.593 55.2285C183.319 56.3652 183.888 63.7538 187.298 66.0273C189.003 66.8798 189.571 64.8905 189.571 64.8905C190.805 69.9276 192.981 75.1209 199.249 79.0994C203.719 81.4659 209.464 83.0779 216.852 78.531C221.967 75.3832 223.673 71.1424 224.809 65.4589" stroke="black" stroke-width="1.4" stroke-linecap="round" stroke-linejoin="round"/>
<path d="M199.234 51.9009C200.939 51.3325 201.507 51.3324 203.212 51.3325" stroke="black" stroke-width="1.4" stroke-linecap="round" stroke-linejoin="round"/>
<path d="M214.579 51.9009C212.874 51.3325 212.305 51.3324 210.6 51.3325" stroke="black" stroke-width="1.4" stroke-linecap="round" stroke-linejoin="round"/>
<path d="M225.946 56.9334C228.883 54.8772 230.668 57.5961 229.924 60.3435C229.229 62.912 226.731 65.4585 224.809 65.4585" stroke="black" stroke-width="1.4" stroke-linecap="round" stroke-linejoin="round"/>
<path d="M199.233 79.6677C198.665 81.9411 197.528 84.7829 195.255 85.3513" stroke="black" stroke-width="1.4" stroke-linecap="round" stroke-linejoin="round"/>
<path d="M217.42 79.0994C217.989 81.3728 219.126 84.2146 221.399 84.7829" stroke="black" stroke-width="1.4" stroke-linecap="round" stroke-linejoin="round"/>
<path d="M208.846 37.041C209.36 37.4908 210.652 38.9984 211.708 41.4303" stroke="black" stroke-width="1.4" stroke-linecap="round" stroke-linejoin="round"/>
<path d="M213.128 37.1321C213.642 37.5819 214.935 39.0895 215.99 41.5214" stroke="black" stroke-width="1.4" stroke-linecap="round" stroke-linejoin="round"/>
<path d="M182.751 42.7246C180.478 42.7246 177.205 44.0887 176.75 49.5449C176.295 55.0011 176.561 62.0487 176.75 64.8904C176.94 67.1639 178.114 71.7107 181.297 71.7107C184.48 71.7107 186.412 71.7107 186.981 71.7107" stroke="black" stroke-width="1.4" stroke-linecap="round" stroke-linejoin="round"/>
<path d="M231.63 42.7246C233.903 42.7246 234.472 46.1209 234.472 50.1132C234.471 55.7968 234.661 62.0487 234.471 64.8904C234.282 67.1639 233.107 71.7107 229.925 71.7107C226.742 71.7107 227.992 71.7107 227.424 71.7107" stroke="black" stroke-width="1.4" stroke-linecap="round" stroke-linejoin="round"/>
<path d="M187.866 56.3652L193.55 58.6387C193.55 60.6595 193.55 62.0488 197.528 62.6171C203.717 63.5013 203.415 60.9121 203.415 59.7754M203.415 59.7754H208.219M203.415 59.7754V58.6387M208.219 59.7754C208.448 61.291 208.895 62.6171 214.01 62.6171C221.967 62.6171 219.951 60.3437 220.262 58.2597L224.809 57.5019M208.219 59.7754V58.6387" stroke="black" stroke-width="1.4" stroke-linecap="round" stroke-linejoin="round"/>
<path d="M212.305 67.7322C212.874 68.1111 213.783 68.7552 215.147 70.574" stroke="black" stroke-width="1.4" stroke-linecap="round" stroke-linejoin="round"/>
<path d="M201.507 67.7322C200.938 68.1111 200.029 68.7552 198.665 70.574" stroke="black" stroke-width="1.4" stroke-linecap="round" stroke-linejoin="round"/>
<path d="M289.033 109.705C292.633 105.916 300.969 99.2474 305.516 102.885C311.199 107.432 312.336 121.072 303.811 125.051C298.695 127.438 295.854 126.841 293.58 126.841" stroke="black" stroke-width="1.4" stroke-linecap="round" stroke-linejoin="round"/>
<path d="M305.516 111.41C304.568 113.115 301.196 116.526 295.285 116.526" stroke="black" stroke-width="1.4" stroke-linecap="round" stroke-linejoin="round"/>
<path d="M8.26611 169.468C17.5492 127.599 40.8292 38.378 45.7775 27.9473C49.1876 20.7591 54.8565 11.0005 67.375 8.05493C86.699 3.5081 167.974 -3.51245 232.766 5.01287C239.208 5.96011 253.795 7.74092 260.047 21.4951C265.731 33.9989 298.127 134.798 301.537 169.468" stroke="black" stroke-width="1.4" stroke-linecap="round" stroke-linejoin="round"/>
<path d="M22.4748 109.79C18.8753 106.001 10.5394 99.3326 5.99257 102.97C0.309028 107.517 -0.827738 121.158 7.69764 125.136C12.8129 127.523 15.6547 126.841 17.9281 126.841" stroke="black" stroke-width="1.4" stroke-linecap="round" stroke-linejoin="round"/>
<path d="M5.99268 111.496C6.93993 113.201 10.3122 116.611 16.2231 116.611" stroke="black" stroke-width="1.4" stroke-linecap="round" stroke-linejoin="round"/>
<path d="M280.508 149.575C278.855 143.97 271.144 145.652 267.288 147.333C268.144 148.649 270.278 154.69 268.004 160.374C270.208 160.935 274.046 160.291 276.25 159.544C277.902 158.983 282.326 155.741 280.508 149.575Z" fill="white"/>
<circle cx="15.3456" cy="15.3456" r="14.6456" transform="matrix(-1 0 0 1 269.709 139.345)" fill="white" stroke="black" stroke-width="1.4" stroke-linejoin="round"/>
<path d="M254.364 145.106C252.459 145.109 250.598 145.677 249.016 146.738C247.434 147.798 246.201 149.305 245.475 151.066C244.749 152.827 244.562 154.763 244.936 156.631C245.311 158.499 246.231 160.213 247.58 161.558C248.929 162.903 250.647 163.817 252.515 164.186C254.384 164.555 256.32 164.361 258.079 163.629C259.838 162.897 261.34 161.66 262.396 160.075C263.451 158.489 264.013 156.626 264.01 154.722" stroke="black" stroke-width="1.4" stroke-linecap="round"/>
<path d="M266.868 147.302C270.846 145.597 278.803 143.892 280.508 149.575C282.384 155.827 277.666 159.237 275.962 159.806C273.688 160.564 270.278 160.942 268.005 160.374" stroke="black" stroke-width="1.4" stroke-linecap="round" stroke-linejoin="round"/>
<path d="M37.1171 148.438C38.7699 142.833 46.4816 144.515 50.3376 146.196C49.481 147.512 47.3476 153.554 49.621 159.237C47.4176 159.798 43.579 159.154 41.3755 158.407C39.7231 157.846 35.2991 154.604 37.1171 148.438Z" fill="white"/>
<circle cx="63.2616" cy="153.554" r="14.6456" fill="white" stroke="black" stroke-width="1.4" stroke-linejoin="round"/>
<path d="M63.2615 143.969C65.1663 143.972 67.0275 144.54 68.6096 145.601C70.1917 146.662 71.4238 148.168 72.1499 149.929C72.876 151.69 73.0636 153.627 72.689 155.494C72.3144 157.362 71.3944 159.077 70.0453 160.421C68.6962 161.766 66.9787 162.681 65.1099 163.049C63.241 163.418 61.3049 163.224 59.5462 162.492C57.7875 161.76 56.2853 160.524 55.2296 158.938C54.1739 157.353 53.612 155.49 53.615 153.585" stroke="black" stroke-width="1.4" stroke-linecap="round"/>
<path d="M50.7577 146.165C46.7792 144.46 38.8225 142.755 37.1172 148.439C35.2414 154.691 39.9591 158.101 41.6639 158.669C43.9374 159.427 47.3475 159.806 49.6209 159.237" stroke="black" stroke-width="1.4" stroke-linecap="round" stroke-linejoin="round"/>
<path d="M137.604 73.4158C135.141 74.5525 131.125 79.4403 134.762 89.8981C138.4 100.356 138.551 101.076 138.172 100.128" stroke="black" stroke-width="1.4" stroke-linecap="round" stroke-linejoin="round"/>
<path d="M157.813 76.7702C155.781 79.0908 150.528 82.2622 145.762 76.3834" stroke="black" stroke-width="1.4" stroke-linecap="round" stroke-linejoin="round"/>
<path d="M118 50C115.158 46.5897 112.843 56.3654 116.822 60.3438" stroke="black" stroke-width="1.4" stroke-linecap="round"/>
<path d="M104.887 50.5481C105.947 49.5302 107.516 49.0425 108.859 50.2344" stroke="black" stroke-width="1.4" stroke-linecap="round"/>
<path d="M114.324 66.012C112.822 66.7104 109.117 67.1208 106.306 63.175" stroke="black" stroke-width="1.4" stroke-linecap="round" stroke-linejoin="round"/>
<path d="M48.051 89.353L40.094 129.138L135.009 130.843C133.872 118.15 131.372 92.9904 130.462 89.353C128.473 81.3961 122.505 80.2593 115.685 80.2593C107.539 80.4488 71.8082 80.714 62.2598 80.2593C52.7115 79.8046 48.8088 86.1323 48.051 89.353Z" fill="#F1F1F1" stroke="black" stroke-width="1.4" stroke-linecap="round" stroke-linejoin="round"/>
<path d="M121.969 55.6784C122.076 58.218 122.189 65.2032 118.202 68.7883C113.42 73.0878 107.264 73.9241 101.726 70.5586C98.0662 68.3342 96.9295 66.0274 95.341 59.8532" stroke="black" stroke-width="1.4" stroke-linecap="round" stroke-linejoin="round"/>
<path d="M100.908 79.6677C100.15 77.9626 99.0893 75.0072 103.181 72.2791" stroke="black" stroke-width="1.4" stroke-linecap="round" stroke-linejoin="round"/>
<path d="M110.57 72.8474C113.412 73.4158 113.412 78.531 111.707 80.236" stroke="black" stroke-width="1.4" stroke-linecap="round" stroke-linejoin="round"/>
<path d="M121.369 69.4373C124.211 70.0056 127.621 72.8474 127.052 81.3727" stroke="black" stroke-width="1.4" stroke-linecap="round" stroke-linejoin="round"/>
<path d="M120.063 41.4977C124.779 45.8231 122.058 53.4274 122.506 53.5235C125.982 54.2702 131.753 42.6197 123.477 37.7177C122.801 35.093 121.556 32.2677 119.872 30.3312C118.627 28.8988 116.131 27.3173 113.581 26.9135C109.184 26.2173 107.006 26.741 102.461 28.6578C100.855 24.5934 96.8963 23.6492 91.9778 25.9146C87.0594 28.1801 83.775 34.1187 82.3603 38.3826C79.5995 46.7033 86.8304 60.0517 85.9763 68.5555C85.2005 76.2786 84.2547 78.6636 82.36 80.2363C80.8697 81.4733 78.6416 82.3443 75.1297 81.59C75.0444 81.9869 75.3081 83.0402 77.0446 84.0776C78.4336 85.2128 81.5566 85.8772 86.4096 86.089C91.2626 86.3009 94.1067 84.3813 96.1724 80.2363C98.2038 76.1599 93.4883 59.6274 92.951 60.3438C91.2459 62.6173 89.0711 59.2553 88.9728 55.9122C88.8744 52.569 89.7792 51.5496 90.6776 51.2502C92.3823 50.6819 92.9505 51.8181 94.087 54.0905L94.0877 54.092C94.8682 55.6526 94.8345 55.8284 95.2247 55.9122C96.3614 54.092 96.0746 47.6064 95.5052 45.8231C98.7344 47.5133 108.778 46.7252 112.221 45.4487C116.518 43.8557 119.422 41.2215 120.063 41.4977Z" fill="black" stroke="black" stroke-width="1.4" stroke-linecap="round" stroke-linejoin="round"/>
<path d="M133.82 54.2922C132.784 52.9853 130.588 51.1556 130.091 54.2922C129.469 58.2129 133.198 62.7871 134.441 61.4802C136.146 70.0055 154.676 83.7559 162.859 67.7321" stroke="black" stroke-width="1.4" stroke-linecap="round" stroke-linejoin="round"/>
<path d="M156.038 68.1806C154.712 69.0879 151.264 69.8137 148.081 65.4587" stroke="black" stroke-width="1.4" stroke-linecap="round" stroke-linejoin="round"/>
<path d="M159.383 75.4536C161.223 76.5849 164.777 79.7763 164.272 83.4915C163.394 82.4447 161.324 80.6144 160.068 81.6678" stroke="black" stroke-width="1.4" stroke-linecap="round" stroke-linejoin="round"/>
<path d="M151.091 83.2293C150.841 82.6851 149.611 82.2489 146.697 84.8575C145.693 84.3964 143.548 82.2313 143 77.2599" stroke="black" stroke-width="1.4" stroke-linecap="round" stroke-linejoin="round"/>
<path d="M148.395 46.7263C149.108 45.8227 151.132 44.2867 153.526 45.371" stroke="black" stroke-width="1.4" stroke-linecap="round" stroke-linejoin="round"/>
<path d="M152.96 54.0336C152.96 55.5306 152.578 56.7442 152.105 56.7442C151.633 56.7442 151.25 55.5306 151.25 54.0336C151.25 52.5366 151.633 51.323 152.105 51.323C152.578 51.323 152.96 52.5366 152.96 54.0336Z" fill="black"/>
<ellipse cx="159.513" cy="54.0336" rx="0.855211" ry="2.71061" fill="black"/>
<ellipse cx="108.015" cy="54.529" rx="0.855211" ry="2.71061" fill="black"/>
<ellipse cx="117.109" cy="54.529" rx="0.855211" ry="2.71061" fill="black"/>
<path d="M162.506 44.998C159.94 44.998 157.375 46.5341 157.375 50.871C157.375 56.2923 159.085 60.81 163.361 62.617" stroke="black" stroke-width="1.4" stroke-linecap="round" stroke-linejoin="round"/>
<path d="M154.263 54.916C154.058 56.4646 153.445 57.7705 152.656 58.635C151.865 59.5023 150.956 59.8737 150.114 59.7497C149.272 59.6257 148.494 59.0062 147.957 57.9434C147.422 56.884 147.17 55.4507 147.374 53.902C147.578 52.3533 148.192 51.0475 148.981 50.183C149.772 49.3157 150.68 48.9443 151.523 49.0683C152.365 49.1922 153.142 49.8118 153.679 50.8746C154.214 51.934 154.467 53.3673 154.263 54.916Z" stroke="black" stroke-width="1.5"/>
<path d="M154.809 51.7743C155.094 51.4731 155.921 50.9611 156.947 51.3225" stroke="black" stroke-width="1.4" stroke-linecap="round" stroke-linejoin="round"/>
<path d="M147.54 52.2264L138.988 51.7747" stroke="black" stroke-width="1.4" stroke-linecap="round" stroke-linejoin="round"/>
<path d="M157.802 51.3228C158.8 49.9675 161.223 47.8894 162.934 50.4193C165.072 53.5817 163.789 59.003 160.795 59.003" stroke="black" stroke-width="1.4" stroke-linecap="round" stroke-linejoin="round"/>
<path d="M165.123 70.7551C167.757 71.2436 173.783 73.1622 176.813 76.9285" stroke="black" stroke-width="1.4" stroke-linecap="round" stroke-linejoin="round"/>
<path fill-rule="evenodd" clip-rule="evenodd" d="M135.524 29.4055C135.524 29.364 135.524 29.3225 135.525 29.2809C135.565 27.5763 137.361 23.6382 143.611 23.7827C146.599 23.8517 149.101 25.5121 149.971 27.7626C151.616 25.9047 153.951 25.1685 156.667 24.6531C161.1 23.8118 165.488 25.5782 167.586 28.1741C172.372 34.0978 171.668 39.4324 169.719 42.6014C167.922 45.5257 162.719 46.6897 159.029 44.3134C155.339 41.937 153.525 37.3847 153.525 37.3847C151.498 44.3094 146.262 46.9794 144.38 47.7876C136.271 51.274 131.484 48.3656 130.17 47.2267C125.532 43.1998 126.61 39.4808 127.343 36.9539C127.359 36.8956 127.376 36.8379 127.393 36.7808C128.572 32.6945 131.462 29.5946 135.524 29.4055Z" fill="black"/>
</svg>
